<?xml version="1.0" standalone="no"?>
<!DOCTYPE svg PUBLIC "-//W3C//DTD SVG 20010904//EN"
 "http://www.w3.org/TR/2001/REC-SVG-20010904/DTD/svg10.dtd">
<svg version="1.0" xmlns="http://www.w3.org/2000/svg"
 width="2638.000000pt" height="2638.000000pt" viewBox="0 0 2638.000000 2638.000000"
 preserveAspectRatio="xMidYMid meet">
<metadata>
Created by potrace 1.14, written by Peter Selinger 2001-2017
</metadata>
<g transform="translate(0.000000,2638.000000) scale(0.100000,-0.100000)"
fill="#000000" stroke="none">
<path d="M12815 19973 c-57 -16 -125 -46 -120 -53 3 -5 -4 -12 -16 -15 -28 -9
-75 -57 -84 -85 -4 -12 -9 -19 -13 -16 -3 3 -17 -13 -30 -36 -30 -51 -62 -94
-62 -83 0 4 -12 -10 -26 -31 -14 -21 -38 -51 -53 -66 -33 -34 -76 -90 -76
-100 0 -4 -3 -7 -6 -5 -6 2 -74 -72 -74 -82 -1 -3 -37 -43 -82 -88 -44 -46
-79 -83 -76 -83 6 0 -199 -203 -236 -232 -18 -16 -30 -28 -26 -28 5 0 0 -9
-10 -20 -10 -11 -23 -20 -30 -20 -6 0 -28 -17 -47 -37 -19 -21 -61 -60 -93
-88 -32 -27 -72 -62 -89 -77 -82 -71 -106 -89 -106 -83 0 5 -16 -8 -35 -28
-20 -21 -49 -44 -65 -52 -17 -9 -30 -20 -30 -25 0 -5 -28 -27 -62 -49 -35 -22
-62 -42 -60 -45 1 -4 -1 -7 -5 -7 -5 -1 -24 -14 -44 -30 -20 -16 -40 -29 -44
-29 -4 0 -22 -15 -41 -32 -19 -18 -39 -33 -43 -33 -5 0 -24 -13 -43 -28 -30
-26 -64 -49 -198 -137 -25 -16 -55 -39 -68 -50 -13 -11 -38 -27 -56 -35 -18
-9 -42 -24 -53 -34 -11 -11 -51 -36 -89 -56 -38 -21 -72 -42 -75 -47 -3 -5
-37 -25 -74 -44 -38 -18 -65 -34 -60 -34 21 0 -37 -31 -63 -34 -67 -6 -85 26
-70 127 7 49 56 157 71 157 4 0 6 4 2 9 -3 5 -1 12 4 15 5 4 22 44 37 91 15
47 31 85 35 85 4 0 10 12 14 28 12 41 12 41 43 125 15 43 30 76 33 73 2 -2 22
49 44 114 21 65 42 117 45 115 4 -2 20 37 36 87 16 50 33 96 39 102 33 35 75
234 62 288 -7 24 -57 88 -57 72 0 -5 -5 -1 -11 9 -5 9 -15 17 -22 17 -7 0 -6
-4 3 -10 11 -7 1 -10 -35 -11 -27 -1 -59 -3 -70 -4 -11 -2 -65 -6 -120 -9 -55
-4 -116 -9 -135 -11 -62 -7 -202 -15 -350 -20 -149 -6 -205 -8 -495 -21 -93
-4 -181 -6 -195 -5 -18 0 -21 -2 -11 -8 9 -6 5 -8 -14 -8 -19 0 -23 2 -14 8
10 6 7 8 -8 6 -12 0 -19 -5 -17 -9 3 -4 -32 -8 -78 -9 -144 -2 -223 -9 -295
-24 -61 -14 -153 -47 -153 -56 0 -5 -18 -18 -40 -29 -22 -11 -48 -33 -57 -48
-10 -15 -30 -38 -44 -52 -45 -42 -45 -63 1 -89 22 -12 43 -28 47 -35 5 -8 32
-28 61 -46 28 -17 52 -36 52 -41 0 -5 4 -9 9 -9 16 0 104 -65 151 -111 102
-99 110 -191 46 -504 -3 -11 -5 -28 -5 -38 -1 -10 -5 -15 -11 -12 -5 3 -10 -1
-10 -9 0 -18 -69 -198 -79 -206 -3 -3 -11 -16 -18 -30 -34 -74 -53 -121 -53
-128 0 -5 -9 -19 -20 -32 -11 -13 -20 -29 -20 -35 0 -18 -51 -128 -67 -143 -7
-7 -13 -19 -13 -26 0 -7 -11 -34 -25 -60 -13 -25 -22 -46 -19 -46 9 0 -18 -45
-32 -53 -8 -4 -14 -16 -14 -25 0 -9 -8 -30 -18 -47 -10 -16 -22 -43 -26 -59
-4 -15 -10 -26 -13 -22 -6 6 -63 -106 -78 -153 -4 -12 -10 -20 -13 -16 -6 6
-71 -122 -72 -142 0 -7 -6 -16 -13 -20 -15 -9 -50 -63 -41 -63 6 0 -34 -70
-46 -80 -3 -3 -21 -36 -39 -75 -18 -38 -39 -74 -45 -80 -6 -5 -29 -47 -51 -92
-22 -46 -43 -83 -46 -83 -4 0 -21 -30 -39 -67 -18 -37 -38 -73 -46 -80 -7 -7
-28 -44 -46 -81 -18 -37 -36 -69 -40 -72 -4 -3 -24 -37 -44 -75 -19 -39 -39
-72 -43 -75 -4 -3 -20 -31 -36 -63 -15 -33 -34 -64 -40 -71 -7 -7 -30 -45 -51
-86 -21 -41 -41 -77 -44 -80 -4 -3 -24 -39 -46 -80 -21 -41 -41 -77 -45 -80
-4 -3 -23 -36 -43 -75 -20 -38 -36 -66 -36 -60 0 5 -19 -28 -42 -75 -22 -47
-46 -88 -52 -92 -6 -4 -11 -11 -11 -15 -1 -4 -15 -38 -33 -74 -18 -37 -32 -72
-32 -79 0 -6 -4 -8 -10 -5 -5 3 -11 1 -11 -4 -2 -14 -2 -16 -23 -85 -10 -32
-18 -75 -19 -95 -1 -55 35 -122 81 -151 22 -14 38 -28 36 -31 -8 -14 161 -65
249 -75 37 -4 54 -10 50 -18 -4 -6 2 -4 12 4 11 9 16 10 11 3 -4 -7 -3 -13 3
-13 5 0 12 6 14 13 4 10 6 10 6 0 1 -9 22 -13 69 -13 41 0 73 5 81 13 11 10
13 10 7 0 -4 -7 -2 -13 3 -13 6 0 11 4 11 9 0 4 21 11 48 14 52 7 84 13 112
22 10 3 27 8 37 10 29 6 129 44 118 45 -5 0 20 15 56 33 36 18 73 39 82 47 9
8 32 26 52 40 43 29 59 44 100 93 16 19 33 33 37 31 5 -3 8 0 8 7 0 7 11 27
25 45 14 18 25 36 25 39 0 4 16 25 35 48 19 22 35 46 35 52 0 7 11 24 25 40
14 15 41 56 59 91 18 35 35 62 37 59 3 -2 20 25 39 61 19 37 39 71 45 78 6 6
25 40 44 76 18 36 38 72 46 80 12 14 42 69 132 243 24 45 43 78 43 72 0 -5 19
28 42 75 22 47 44 87 48 90 7 5 22 34 56 103 10 20 23 37 28 37 5 0 7 3 3 6
-3 4 5 23 18 43 14 19 25 43 25 52 0 9 7 22 15 29 8 7 15 19 15 26 0 8 4 14 9
14 5 0 23 29 40 65 18 36 45 78 61 92 17 14 28 28 25 31 -8 9 39 39 85 55 24
8 65 13 90 11 48 -4 213 -54 205 -63 -3 -2 6 -10 19 -15 23 -10 86 -63 205
-173 25 -24 51 -43 57 -43 7 0 24 -16 38 -35 15 -19 31 -34 35 -32 8 2 83 -73
180 -178 15 -16 38 -48 51 -70 13 -22 30 -44 36 -50 7 -5 27 -49 46 -98 19
-48 37 -85 41 -82 4 3 5 2 3 -1 -3 -3 2 -23 9 -44 15 -41 27 -125 28 -180 0
-47 -13 -161 -19 -172 -3 -5 -8 -20 -10 -35 -3 -15 -9 -32 -13 -38 -10 -11
-55 -126 -66 -165 -4 -14 -13 -34 -19 -45 -13 -21 -26 -64 -31 -102 -2 -11 -6
-30 -9 -41 -4 -11 -9 -31 -11 -44 -18 -93 -29 -134 -36 -138 -5 -4 -11 -26
-14 -49 -3 -24 -8 -48 -11 -53 -4 -5 -8 -52 -9 -104 -3 -96 11 -185 38 -240 8
-16 20 -47 27 -69 26 -87 43 -124 54 -118 6 3 8 2 4 -2 -5 -5 3 -28 17 -52 14
-23 23 -43 20 -43 -6 0 32 -59 45 -70 3 -3 25 -34 48 -69 23 -35 42 -60 42
-56 0 4 15 -10 33 -32 46 -54 130 -135 158 -153 12 -8 33 -24 45 -35 22 -21
38 -31 113 -73 25 -14 48 -28 51 -32 5 -7 94 -49 115 -54 48 -12 64 -19 60
-25 -4 -7 133 -46 200 -57 17 -3 37 -7 45 -9 21 -6 131 -19 157 -18 15 1 20
-3 16 -11 -4 -6 2 -4 12 4 11 9 16 10 11 3 -4 -7 -3 -13 1 -13 5 0 15 6 22 13
11 10 13 10 7 0 -9 -17 6 -17 23 0 11 9 12 9 7 0 -5 -9 3 -12 28 -10 20 2 39
6 42 10 4 4 12 7 18 7 6 0 4 -5 -4 -10 -12 -8 -10 -10 8 -10 13 0 20 4 17 10
-9 14 8 12 24 -2 11 -10 13 -10 7 0 -5 8 2 12 26 13 104 1 462 64 453 80 -3 4
12 10 33 14 47 9 195 57 202 65 3 4 50 22 105 40 55 18 109 38 120 44 16 10
150 56 175 61 39 7 110 30 110 36 0 4 12 10 28 13 116 28 189 54 196 73 3 8
10 12 15 9 5 -3 17 6 26 21 19 29 24 116 12 213 -8 57 -16 72 -44 77 -114 21
-235 15 -378 -18 -27 -7 -51 -12 -52 -11 -2 0 -17 -4 -35 -9 -18 -6 -46 -12
-62 -14 -15 -2 -33 -8 -40 -13 -10 -8 -68 -24 -136 -36 -14 -3 -36 -8 -50 -11
-14 -3 -57 -11 -97 -17 -40 -6 -70 -15 -68 -19 14 -22 -324 -20 -351 2 -11 8
-15 9 -10 2 4 -7 2 -13 -3 -13 -6 0 -11 4 -11 9 0 5 -17 12 -37 16 -51 9 -195
57 -189 62 2 3 -31 23 -74 46 -44 22 -77 43 -75 47 2 4 -13 17 -35 29 -21 12
-53 40 -71 62 -17 22 -34 38 -37 35 -5 -5 -23 17 -62 74 -8 12 -20 28 -25 34
-15 15 -63 99 -64 111 -5 31 -14 55 -21 55 -28 0 -27 238 1 248 5 2 9 9 9 15
0 7 12 35 25 62 14 28 25 55 25 61 0 6 9 21 20 34 11 13 20 29 20 35 0 7 7 29
15 49 8 20 15 38 15 41 -1 9 32 70 41 75 5 3 24 62 44 130 19 69 39 134 45
145 9 21 25 99 35 175 3 25 8 52 10 60 2 8 7 53 11 100 3 47 8 101 10 120 2
19 3 91 3 160 1 243 -20 337 -101 456 -28 42 -58 78 -65 81 -8 3 -27 25 -44
49 -16 24 -36 44 -44 44 -8 0 -15 4 -15 9 0 15 -174 185 -206 201 -16 8 -34
21 -39 28 -12 15 -137 62 -165 62 -10 0 -20 4 -22 10 -2 5 -23 12 -48 15 -57
7 -120 49 -120 81 0 18 10 26 53 40 28 10 61 19 72 21 10 2 22 8 25 12 3 5 32
12 65 16 33 3 78 9 100 12 22 3 49 6 60 8 74 9 253 50 249 57 -3 4 1 8 9 8 21
0 230 69 236 78 3 4 40 20 81 36 41 16 80 34 85 41 8 9 130 52 235 81 14 4 27
10 30 13 3 4 54 24 114 45 60 21 119 47 130 57 11 11 26 19 33 19 14 0 94 40
103 51 3 4 25 17 50 30 25 12 57 31 73 41 15 11 27 17 27 14 0 -3 9 3 20 14
10 10 42 31 70 45 27 14 50 29 50 34 0 5 15 16 34 25 38 18 169 112 203 146
12 12 42 36 67 54 25 18 43 36 39 39 -3 4 -1 7 6 7 14 0 251 234 251 247 0 6
18 24 40 42 22 17 40 37 40 43 0 6 16 27 35 47 65 67 113 121 108 121 -3 0 11
17 31 37 20 21 36 44 36 52 0 8 3 11 7 8 3 -4 26 20 50 53 25 33 48 60 52 60
4 0 18 19 31 41 12 23 31 50 40 59 17 17 30 38 67 110 10 19 21 37 24 40 12
10 73 137 74 153 0 4 5 11 11 15 5 4 18 25 28 47 10 22 24 53 32 69 8 16 14
35 14 43 0 7 4 13 8 13 26 0 77 262 75 386 -1 56 -26 120 -53 134 -25 13 -118
15 -235 6 -132 -12 -153 -11 -435 10 -187 14 -471 24 -495 17z m4 -454 c0 -39
-5 -81 -11 -93 -7 -11 -12 -24 -13 -28 0 -4 -15 -23 -32 -42 -18 -19 -33 -37
-33 -41 0 -12 -58 -74 -63 -69 -3 3 -13 -8 -23 -24 -9 -17 -34 -41 -55 -53
-20 -13 -35 -27 -33 -31 2 -3 -14 -19 -37 -35 -22 -15 -53 -39 -67 -53 -15
-14 -43 -34 -62 -44 -19 -10 -43 -28 -52 -40 -34 -42 -28 -6 7 43 20 27 35 53
33 55 -2 3 7 18 20 33 42 52 90 132 83 139 -3 4 -1 5 4 1 6 -3 24 15 40 41 25
41 64 89 115 145 8 9 42 41 75 71 33 31 69 65 80 76 11 11 21 20 22 20 0 0 1
-32 2 -71z m-3545 -720 c-3 -5 3 -9 12 -9 32 0 64 -40 64 -81 0 -43 -38 -228
-50 -244 -4 -5 -11 -26 -15 -45 -17 -85 -68 -285 -73 -290 -4 -3 -24 -59 -46
-125 -21 -66 -43 -123 -48 -126 -5 -3 -10 -12 -12 -20 -1 -8 -10 -31 -19 -53
-9 -21 -17 -42 -17 -47 0 -10 -22 -51 -31 -59 -3 -3 -23 -43 -43 -89 -20 -47
-40 -87 -44 -90 -4 -4 -23 -40 -42 -81 -19 -41 -39 -79 -45 -85 -11 -11 -59
-105 -60 -117 0 -4 -9 -18 -20 -30 -11 -13 -36 -56 -56 -96 -19 -40 -37 -70
-40 -67 -3 2 -24 -32 -47 -77 -23 -45 -42 -78 -42 -73 0 6 -18 -19 -40 -55
-22 -36 -40 -60 -40 -55 0 6 -8 0 -18 -13 -12 -16 -33 -25 -61 -29 -43 -6 -43
-6 -29 18 7 13 16 26 19 29 4 3 22 41 40 85 18 44 38 87 45 95 12 14 46 86 49
100 3 22 29 69 36 64 5 -3 9 1 9 9 0 16 61 159 77 178 6 8 27 57 48 109 20 52
42 102 49 110 7 8 26 50 41 93 15 42 31 77 35 77 8 0 60 118 60 136 0 6 11 28
25 48 13 20 22 36 20 36 -2 0 4 20 15 45 11 25 19 46 18 48 -3 5 35 113 43
123 12 15 46 146 54 209 11 78 13 239 4 303 -20 133 -22 119 22 126 22 4 37
11 34 16 -6 10 45 17 92 11 18 -2 30 -7 27 -12z"/>
<path d="M16267 19344 c-1 -1 -47 -4 -102 -7 -55 -3 -101 -6 -102 -7 -4 0 6
-74 22 -165 10 -60 35 -135 45 -135 5 0 12 -17 16 -37 4 -21 8 -47 10 -58 14
-70 1 -229 -21 -280 -7 -16 -20 -59 -29 -95 -48 -205 -58 -246 -66 -255 -6 -8
-34 -106 -55 -198 -7 -30 -30 -92 -36 -97 -5 -5 -32 -67 -36 -85 -6 -26 -30
-84 -40 -96 -6 -8 -28 -52 -48 -99 -21 -47 -41 -87 -45 -90 -5 -3 -74 -145
-71 -145 0 0 -2 -10 -5 -22 -4 -13 -9 -21 -13 -19 -4 3 -20 -32 -36 -77 -15
-45 -34 -91 -41 -102 -15 -24 -74 -200 -74 -220 0 -7 -6 -20 -13 -27 -7 -7
-30 -67 -51 -133 -21 -66 -42 -122 -46 -125 -4 -3 -22 -49 -40 -102 -18 -54
-36 -98 -41 -98 -5 0 -9 -5 -9 -12 0 -20 -74 -213 -87 -226 -7 -7 -14 -18 -14
-23 -3 -17 -5 -24 -34 -101 -16 -42 -33 -74 -37 -72 -4 3 -8 -2 -8 -11 0 -16
-60 -167 -70 -175 -3 -3 -21 -43 -39 -90 -18 -47 -40 -96 -50 -110 -9 -14 -30
-56 -46 -95 -16 -38 -32 -72 -36 -75 -7 -5 -29 -56 -31 -70 0 -3 -9 -21 -19
-40 -11 -19 -19 -40 -19 -46 0 -6 -9 -21 -20 -34 -11 -13 -20 -29 -20 -37 0
-8 -11 -34 -25 -59 -14 -24 -25 -45 -24 -47 2 -13 -15 -87 -21 -87 -3 0 -7 -6
-7 -12 0 -7 -4 -38 -7 -68 -13 -104 -4 -270 15 -270 5 0 9 -7 9 -15 0 -30 48
-121 80 -153 19 -17 54 -42 79 -54 26 -12 48 -25 51 -28 6 -8 70 -31 70 -25 0
3 11 0 24 -5 77 -29 393 -29 506 0 19 5 48 11 63 14 16 3 34 9 40 13 7 5 37
17 67 27 98 32 254 106 320 152 25 17 59 39 77 48 17 8 38 23 47 31 24 24 117
85 130 85 6 0 4 5 -4 10 -12 7 -12 10 -1 10 13 0 71 43 126 93 16 16 42 35 57
44 36 22 51 57 54 132 3 80 1 86 -51 116 -61 36 -144 30 -256 -18 -40 -18 -96
-14 -139 8 -28 14 -40 47 -40 107 0 16 -4 27 -8 24 -5 -3 -9 1 -9 9 0 8 4 12
9 9 4 -3 8 9 8 26 0 34 32 156 49 189 7 12 9 21 5 21 -3 0 6 16 21 36 15 19
28 41 29 48 1 6 12 29 24 49 12 21 22 42 22 48 0 5 4 9 8 9 4 0 26 37 47 83
22 45 43 84 48 86 5 2 26 40 48 85 21 44 39 77 39 71 0 -5 16 23 35 63 20 40
43 81 53 92 9 12 17 24 18 28 2 16 58 126 73 144 9 10 16 22 17 26 1 12 49
107 57 113 11 8 77 142 77 157 0 7 4 11 8 8 5 -3 19 16 31 42 46 96 55 111 65
105 6 -4 8 -3 4 1 -7 8 55 130 78 153 8 8 14 19 14 24 0 5 11 26 24 47 23 37
25 41 34 74 2 10 7 16 11 13 4 -2 24 32 45 75 20 43 40 80 44 82 4 2 23 33 41
70 19 37 38 65 43 62 4 -3 8 0 8 6 0 16 58 136 73 152 7 7 29 49 51 93 21 44
44 83 50 87 6 4 11 11 12 15 1 15 52 114 66 131 9 9 31 52 50 94 19 43 37 76
40 73 2 -3 22 33 43 80 22 47 42 85 46 85 4 0 21 30 39 68 17 37 35 69 39 72
4 3 26 43 49 90 23 47 42 81 42 75 0 -8 47 82 55 105 9 26 19 39 26 34 5 -3 9
1 9 9 0 8 12 36 26 63 27 51 31 64 41 126 3 24 10 35 17 31 6 -3 8 -3 5 0 -3
4 0 28 6 54 l12 48 -34 11 c-19 7 -67 20 -107 30 -39 9 -75 20 -81 24 -14 11
-53 18 -255 45 -19 3 -51 7 -70 10 -19 3 -55 7 -80 9 -25 2 -81 7 -125 11 -44
5 -86 8 -92 8 -7 0 -13 5 -13 10 0 5 -8 3 -17 -4 -11 -10 -14 -10 -9 -1 5 9
-6 12 -46 13 -29 0 -75 3 -103 5 -53 4 -664 12 -668 8z m778 -441 c44 -8 82
-19 83 -24 2 -5 14 -9 27 -9 42 0 35 -16 -15 -34 -35 -13 -62 -16 -92 -11 -59
10 -64 11 -141 29 -38 9 -84 16 -103 16 -19 0 -34 5 -34 10 0 6 -18 10 -41 10
-22 0 -38 -4 -35 -8 3 -5 -12 -14 -32 -22 -35 -12 -97 -56 -97 -69 0 -10 -65
-64 -66 -55 -1 5 -2 20 -3 34 -2 14 -6 46 -10 71 -8 54 -10 53 109 64 39 4 71
8 73 10 11 10 311 0 377 -12z"/>
<path d="M14748 19332 c-37 -2 -58 -7 -58 -15 0 -7 -4 -6 -10 3 -5 8 -10 10
-10 4 0 -6 -17 -14 -37 -17 -92 -14 -192 -48 -217 -73 -8 -8 -18 -14 -22 -14
-4 0 -22 -11 -40 -25 -18 -14 -36 -25 -39 -25 -26 0 -213 -242 -228 -295 -14
-48 -34 -95 -39 -90 -9 9 -38 -143 -38 -200 0 -72 19 -155 42 -181 10 -11 18
-25 18 -31 0 -5 14 -29 30 -51 17 -23 30 -47 30 -54 0 -6 3 -9 6 -5 4 3 24
-13 45 -36 22 -22 39 -39 39 -36 0 3 19 -11 41 -32 23 -21 45 -36 50 -34 4 3
11 -1 16 -8 9 -15 73 -61 73 -53 0 3 16 -3 35 -14 20 -11 42 -20 50 -20 8 0
15 -4 15 -10 0 -5 33 -19 73 -31 73 -22 218 -29 295 -15 92 17 153 36 167 50
9 9 28 19 43 22 15 4 39 15 54 25 14 11 29 19 32 19 19 0 151 135 171 175 8
17 15 23 15 15 0 -14 41 54 44 75 1 5 11 26 21 45 24 43 43 95 50 135 2 17 7
41 10 55 14 70 6 268 -15 339 -5 18 -9 36 -8 40 3 15 -15 80 -21 76 -4 -2 -15
27 -25 65 -10 38 -23 73 -30 78 -6 5 -33 15 -59 22 -26 7 -45 15 -42 18 6 7
-144 58 -200 68 -22 5 -43 9 -47 10 -5 1 -25 2 -45 3 -27 1 -34 4 -24 10 16
10 -113 18 -211 13z m-75 -342 c-13 -10 -23 -21 -23 -24 0 -9 -86 -120 -104
-136 -9 -7 -16 -18 -16 -25 0 -7 -12 -26 -28 -42 -15 -17 -40 -50 -57 -74 -16
-24 -34 -49 -41 -54 -6 -6 -27 -36 -47 -67 -20 -31 -41 -59 -47 -63 -15 -9
-13 68 3 84 10 11 9 12 -3 6 -13 -8 -13 -7 -1 8 7 9 11 17 8 17 -3 0 1 20 9
45 7 25 11 45 9 45 -14 0 50 108 80 136 21 19 34 34 29 34 -14 0 115 80 129
80 8 0 8 3 -1 9 -10 6 -8 10 10 14 12 3 41 12 63 20 47 18 59 12 28 -13z"/>
<path d="M18318 18155 c-2 -2 -66 -6 -143 -9 -77 -3 -153 -8 -170 -10 -16 -3
-65 -7 -109 -11 -92 -7 -99 -8 -106 -17 -3 -3 -37 -9 -75 -13 -171 -17 -235
-58 -235 -152 0 -38 21 -113 30 -108 10 6 48 -93 60 -153 8 -43 6 -147 -4
-188 -11 -52 -49 -170 -57 -180 -8 -10 -46 -124 -54 -163 -2 -9 -10 -35 -19
-58 -8 -24 -12 -43 -8 -43 4 0 1 -4 -6 -8 -6 -5 -19 -35 -28 -68 -9 -32 -24
-87 -33 -122 -10 -34 -20 -60 -22 -57 -3 3 -23 -60 -45 -139 -22 -81 -42 -139
-46 -133 -5 8 -8 5 -8 -8 -1 -27 -75 -256 -81 -250 -5 4 -49 -120 -55 -153 -1
-7 -9 -24 -18 -37 -18 -27 -86 -204 -86 -223 0 -7 -4 -11 -9 -8 -4 3 -25 -40
-46 -94 -21 -55 -42 -100 -46 -100 -6 0 -19 -26 -24 -50 -1 -3 -9 -23 -20 -45
-10 -22 -19 -46 -21 -53 -1 -8 -9 -19 -17 -25 -8 -7 -19 -25 -25 -42 -21 -58
-62 -150 -62 -140 -1 9 -22 -30 -24 -45 -3 -15 -61 -146 -67 -150 -6 -5 -30
-59 -59 -137 -7 -18 -16 -33 -20 -33 -24 0 -41 -171 -20 -209 16 -31 84 -93
110 -102 14 -4 50 -17 80 -28 30 -12 62 -21 72 -21 9 0 19 -6 21 -12 4 -10 6
-9 6 1 1 10 4 11 15 2 10 -8 16 -9 21 -1 3 5 12 10 18 10 8 0 8 -3 -1 -9 -9
-5 10 -9 50 -10 34 -1 95 -4 133 -6 163 -8 530 -19 656 -18 128 0 140 1 180
25 24 14 57 28 72 32 15 4 26 10 23 14 -2 4 -7 26 -10 48 -4 22 -9 51 -11 64
-12 55 -14 147 -4 180 18 59 52 140 60 140 6 0 11 11 24 55 5 16 54 117 70
145 8 14 27 52 41 85 15 33 30 62 34 65 7 4 59 111 65 130 8 30 18 50 25 50 5
0 12 10 16 23 9 31 43 109 54 127 6 8 29 52 51 98 22 45 44 82 48 82 4 0 18
20 31 44 21 42 33 58 103 141 15 18 27 38 27 45 0 8 3 11 6 7 4 -3 21 13 40
36 65 82 310 339 318 334 3 -1 20 12 39 28 40 35 75 57 134 86 24 12 41 24 39
28 -3 4 27 24 67 44 39 20 64 37 56 37 -32 1 59 31 98 33 34 1 48 -4 73 -28
47 -46 52 -58 39 -112 -17 -75 -17 -77 -18 -101 -1 -13 -5 -21 -9 -18 -5 3
-14 -23 -21 -57 -17 -82 -59 -218 -70 -227 -4 -3 -24 -58 -45 -122 -21 -65
-42 -118 -47 -118 -5 0 -9 -6 -9 -12 0 -17 -69 -196 -70 -183 -1 8 -54 -134
-64 -170 -9 -35 -20 -61 -28 -66 -5 -3 -10 -12 -12 -20 -1 -8 -15 -51 -29 -97
-15 -46 -27 -92 -27 -103 0 -10 -4 -19 -8 -19 -11 0 -16 -51 -14 -164 0 -55 5
-102 10 -105 5 -3 12 -24 16 -46 3 -22 13 -65 21 -95 9 -30 18 -63 20 -74 2
-10 12 -30 22 -45 9 -14 31 -54 49 -88 17 -34 46 -74 63 -89 17 -14 30 -29 28
-32 -4 -8 29 -43 39 -41 3 0 22 -14 42 -33 20 -18 39 -33 42 -33 3 0 21 -10
41 -23 20 -12 41 -22 47 -22 6 0 26 -9 44 -19 18 -10 58 -24 88 -31 57 -14
240 -19 300 -8 97 16 159 31 155 37 -2 4 24 13 58 21 97 21 155 45 187 75 17
16 30 26 30 22 0 -4 10 3 21 14 26 26 59 115 53 143 -12 64 -18 78 -48 103
-18 15 -56 48 -85 73 -92 79 -118 161 -97 313 4 26 10 57 15 70 5 12 9 27 10
32 6 34 45 154 49 150 3 -2 20 42 40 98 19 56 40 109 47 117 11 14 22 38 23
50 0 3 30 64 66 136 36 72 66 136 66 142 0 7 4 12 8 12 5 0 26 39 47 88 22 48
44 90 50 94 5 4 10 11 10 15 0 4 13 34 28 67 15 32 27 62 27 66 0 5 7 15 15
23 16 17 65 123 65 143 0 7 7 20 16 29 9 9 34 60 55 113 21 53 39 93 39 87 1
-12 33 67 65 160 13 39 25 66 25 60 1 -5 18 55 39 135 20 80 44 156 51 170 10
17 15 55 14 117 0 81 -2 95 -22 116 -12 13 -22 29 -22 35 0 7 -5 12 -11 12 -5
0 -8 4 -5 9 3 4 -9 24 -27 42 -30 32 -48 55 -89 118 -10 14 -18 23 -18 20 0
-4 -24 17 -52 45 -29 29 -75 67 -103 86 -27 18 -52 37 -56 42 -8 12 -127 68
-144 68 -8 0 -15 4 -15 10 0 38 -396 81 -535 58 -93 -16 -235 -51 -235 -59 0
-4 -17 -13 -37 -19 -60 -18 -148 -53 -153 -61 -4 -6 -51 -25 -172 -71 -22 -8
-30 -6 -49 13 -23 23 -29 77 -10 88 15 10 27 101 22 177 -2 32 -51 81 -91 92
-31 8 -923 15 -932 7z m-256 -499 l27 -34 -26 -73 c-14 -41 -29 -76 -33 -79
-6 -4 -19 -34 -26 -65 -8 -32 -58 -162 -65 -171 -5 -6 -27 -62 -49 -125 -21
-63 -39 -109 -40 -104 0 6 -18 -41 -38 -103 -21 -62 -40 -110 -43 -108 -3 3
-23 -48 -44 -114 -21 -66 -41 -117 -44 -115 -2 3 -20 -41 -39 -97 -19 -57 -38
-105 -42 -108 -4 -3 -13 -23 -20 -45 -25 -78 -54 -127 -103 -178 -50 -51 -84
-70 -73 -40 3 8 6 21 6 29 0 9 4 13 8 10 7 -4 60 143 54 151 -1 2 7 23 18 48
11 25 16 45 12 45 -4 0 -2 4 4 8 9 5 40 92 59 162 16 59 29 96 35 100 5 4 49
131 55 160 9 43 18 70 23 66 3 -4 23 51 45 121 21 71 42 130 46 133 3 3 19 46
34 95 16 50 36 113 47 140 23 63 40 118 38 125 -6 21 116 200 137 200 6 0 22
-15 37 -34z m2036 22 c6 -1 10 -3 8 -6 -3 -2 23 -18 57 -36 107 -57 96 -62
-138 -61 -223 0 -241 5 -162 47 95 50 139 65 181 61 22 -3 47 -5 54 -5z"/>
<path d="M13246 17682 c-29 -3 -36 -6 -25 -13 10 -6 7 -9 -13 -9 -31 0 -98
-29 -98 -42 0 -5 -4 -7 -10 -3 -9 5 -80 -96 -80 -115 0 -6 -4 -10 -10 -10 -5
0 -10 -5 -10 -12 0 -6 3 -8 7 -5 5 6 46 -47 48 -63 2 -13 40 -70 48 -70 4 0 5
-4 2 -10 -3 -5 -2 -10 3 -10 18 0 44 -84 43 -136 -1 -49 -33 -163 -50 -174 -4
-3 -25 -54 -46 -115 -21 -60 -42 -113 -47 -116 -5 -3 -24 -52 -42 -108 -18
-56 -35 -98 -39 -95 -4 4 -7 3 -8 -2 -2 -28 -65 -213 -78 -228 -9 -11 -49
-116 -56 -148 -2 -9 -11 -30 -19 -47 -9 -17 -13 -31 -9 -31 5 0 2 -4 -5 -8
-13 -9 -72 -156 -72 -180 0 -7 -4 -11 -8 -8 -5 3 -14 -12 -21 -32 -31 -89 -64
-166 -77 -179 -8 -8 -14 -19 -14 -25 0 -5 -6 -24 -14 -41 -7 -18 -21 -51 -31
-74 -10 -24 -21 -43 -24 -43 -4 0 -22 -38 -40 -85 -19 -46 -38 -82 -43 -79 -4
3 -8 -1 -8 -9 0 -8 -11 -35 -25 -61 -13 -25 -22 -46 -19 -46 4 0 -25 -50 -36
-60 -8 -8 -55 -103 -55 -112 0 -4 -7 -16 -16 -26 -15 -17 -29 -46 -34 -67 -2
-5 -10 -35 -19 -66 -30 -101 -26 -222 11 -299 28 -59 95 -127 135 -135 16 -4
26 -10 23 -15 -11 -17 84 -26 255 -24 96 1 213 6 260 10 47 4 100 6 118 6 17
0 32 4 32 10 0 6 7 5 17 -3 11 -10 14 -10 9 -1 -5 9 5 12 41 13 26 1 62 3 78
4 17 1 82 5 145 9 128 8 208 14 260 21 65 8 125 17 140 20 8 2 41 6 73 10 31
4 57 11 57 15 0 4 24 11 53 15 28 5 54 9 57 10 16 4 87 18 100 20 28 3 109 37
107 45 -2 9 42 50 53 50 15 0 19 30 7 42 -19 20 -63 83 -57 83 2 0 -3 11 -13
25 -9 13 -17 20 -17 15 0 -6 -16 13 -35 40 -20 28 -41 55 -48 60 -53 44 -87
243 -63 370 15 81 50 203 58 199 4 -3 8 0 8 6 0 19 72 163 92 184 10 11 19 23
19 28 5 32 41 98 51 92 4 -3 8 0 8 6 0 13 68 152 78 160 4 3 25 42 47 87 22
45 43 79 47 77 5 -3 9 0 9 5 3 20 5 26 33 81 16 30 32 57 36 60 4 3 26 42 47
88 22 45 42 80 44 77 3 -3 18 23 34 58 16 34 41 80 55 102 15 22 38 64 50 93
13 29 25 50 28 47 3 -3 25 34 48 82 24 49 43 84 44 78 0 -15 70 124 70 140 0
8 6 18 14 22 17 10 76 183 76 224 0 16 5 29 13 29 8 0 9 3 1 8 -6 4 -14 23
-18 43 -6 33 -48 103 -64 105 -4 0 -19 6 -33 12 -26 10 -52 15 -154 26 -27 4
-70 9 -95 11 -25 3 -74 8 -109 11 -36 2 -70 9 -76 14 -7 6 -16 5 -25 -3 -10
-9 -11 -9 -6 1 5 9 -6 12 -41 14 -26 0 -59 2 -73 3 -61 6 -178 16 -215 20 -82
8 -183 15 -295 21 -63 3 -140 7 -170 9 -30 2 -80 4 -110 4 -38 1 -51 4 -40 11
12 7 10 9 -7 7 -12 0 -19 -5 -16 -10 3 -5 -3 -5 -13 1 -21 11 -136 19 -198 14z
m1209 -396 c22 -4 63 -13 90 -20 l50 -14 -40 -1 c-23 -1 -45 -5 -50 -10 -6 -4
-48 -13 -95 -20 -47 -6 -96 -13 -110 -16 -43 -9 -143 -6 -185 5 -22 6 -50 14
-62 17 -13 3 -23 9 -23 13 0 5 -10 12 -22 16 l-23 7 22 8 c12 4 69 11 125 15
57 3 104 7 105 8 5 5 180 -2 218 -8z m-785 -124 c26 -33 25 -79 -4 -177 -28
-95 -40 -131 -45 -135 -9 -6 -85 -242 -83 -253 2 -5 -2 -6 -8 -2 -5 3 -10 1
-10 -5 0 -15 -62 -174 -71 -180 -4 -3 -24 -44 -44 -92 -21 -49 -42 -88 -47
-88 -4 0 -8 -4 -8 -10 0 -10 -44 -113 -62 -145 -16 -28 -54 -104 -73 -147 -10
-21 -21 -38 -26 -38 -5 0 -9 -5 -9 -12 0 -6 -16 -44 -35 -85 -19 -41 -35 -78
-35 -84 0 -6 -4 -8 -8 -5 -5 3 -24 -31 -42 -75 -18 -44 -40 -88 -49 -97 -9 -8
-16 -18 -16 -21 0 -3 -7 -22 -16 -41 -9 -19 -22 -49 -30 -67 -7 -17 -16 -30
-19 -28 -4 2 -24 -36 -45 -85 -21 -49 -42 -87 -46 -84 -5 3 -9 0 -9 -6 0 -19
-73 -165 -86 -173 -8 -4 -14 -15 -14 -23 0 -27 -50 -115 -83 -144 -39 -36 -75
-38 -131 -8 -22 13 -42 23 -44 24 -1 1 2 12 7 25 5 13 10 20 11 14 1 -10 57
134 65 168 2 10 13 29 25 44 19 24 62 108 64 125 1 4 9 16 18 27 10 11 31 51
49 87 17 37 37 73 43 80 7 7 19 27 26 46 8 18 24 49 36 69 13 20 20 40 17 43
-4 3 -1 6 4 6 6 0 21 21 34 48 12 26 42 78 66 117 24 38 43 74 43 80 0 6 8 20
18 31 10 10 36 54 57 96 22 42 41 75 44 73 2 -3 22 30 44 73 21 42 43 79 47
82 4 3 22 32 40 65 18 33 37 66 42 72 6 7 26 45 45 85 20 40 39 75 43 78 8 6
55 113 65 147 3 13 12 29 19 35 10 11 53 113 47 113 -1 0 12 33 29 74 28 68
60 185 75 270 3 19 8 38 10 42 9 13 45 -3 65 -29z"/>
<path d="M7065 14258 c-33 -10 -64 -25 -70 -32 -5 -7 -23 -20 -40 -29 -45 -23
-108 -90 -134 -142 -12 -25 -25 -45 -29 -45 -4 0 -25 -27 -47 -59 -21 -33 -43
-57 -47 -55 -4 3 -12 -5 -17 -18 -5 -13 -24 -38 -41 -56 -18 -18 -48 -54 -67
-80 -19 -26 -40 -51 -47 -57 -6 -5 -26 -28 -44 -50 -55 -65 -160 -180 -259
-281 -51 -52 -93 -99 -93 -104 0 -6 -4 -10 -9 -10 -15 0 -71 -53 -71 -67 0 -7
-5 -13 -10 -13 -6 0 -37 -26 -69 -57 -75 -76 -196 -185 -296 -268 -44 -36
-100 -85 -125 -107 -25 -22 -55 -45 -67 -51 -13 -6 -23 -14 -23 -18 0 -5 -22
-23 -50 -41 -27 -18 -50 -36 -50 -40 0 -4 -24 -23 -54 -43 -30 -20 -57 -42
-60 -50 -3 -8 -10 -15 -15 -15 -12 0 -116 -70 -105 -70 5 0 -22 -21 -61 -45
-38 -25 -65 -45 -60 -45 10 -1 -25 -24 -36 -25 -3 0 -39 -25 -80 -55 -40 -30
-86 -60 -101 -67 -15 -7 -28 -16 -28 -21 0 -8 -57 -44 -121 -77 -10 -5 -19
-13 -19 -17 0 -4 -21 -19 -47 -34 -27 -15 -65 -41 -85 -57 -21 -16 -38 -26
-38 -23 0 3 -16 -6 -36 -19 -20 -14 -43 -25 -51 -25 -8 0 -12 -4 -9 -8 5 -9
-117 -82 -136 -82 -5 0 -6 -4 -3 -10 3 -5 1 -10 -5 -10 -6 0 -28 -11 -49 -25
-22 -13 -51 -27 -65 -31 -14 -3 -26 -10 -26 -15 0 -5 -7 -9 -15 -9 -8 0 -15 5
-15 10 0 6 -8 10 -18 10 -11 0 -27 9 -37 20 -15 16 -16 30 -11 84 5 56 43 180
46 151 1 -14 47 83 69 145 10 27 20 48 22 45 3 -2 22 47 43 110 21 63 41 115
45 115 4 0 15 26 26 58 19 59 37 106 61 157 8 17 30 73 49 125 19 52 35 91 36
85 0 -5 5 4 9 20 13 48 63 179 70 185 11 9 70 184 76 228 4 23 10 42 15 42 5
0 9 23 9 51 0 27 -4 48 -9 45 -5 -3 -16 11 -24 32 -16 39 -42 68 -67 73 -8 2
-55 -1 -105 -5 -49 -4 -117 -10 -150 -12 -33 -3 -85 -7 -115 -9 -101 -9 -235
-18 -253 -17 -9 0 -15 -3 -12 -9 4 -5 -34 -9 -92 -10 -54 -1 -120 -2 -148 -4
-27 -1 -131 -5 -230 -9 -99 -4 -214 -9 -255 -11 -41 -2 -145 -7 -230 -10 -331
-12 -508 -22 -545 -29 -11 -3 -30 -5 -43 -5 -13 -1 -20 -5 -17 -11 3 -5 -2
-10 -13 -10 -48 0 -215 -66 -206 -82 3 -4 -1 -8 -9 -8 -7 0 -26 -13 -42 -30
-15 -16 -32 -27 -37 -24 -4 3 -8 1 -8 -4 0 -5 -16 -29 -35 -53 -19 -24 -35
-50 -35 -57 0 -7 -4 -10 -10 -7 -24 15 -7 -22 19 -40 16 -11 54 -39 84 -62 31
-24 61 -43 67 -43 6 0 9 -4 6 -8 -2 -4 27 -25 65 -47 38 -21 69 -44 69 -50 0
-6 12 -18 27 -26 73 -37 196 -200 176 -232 -3 -6 -1 -7 5 -3 9 5 12 -15 12
-73 0 -54 -4 -81 -12 -84 -10 -4 -9 -6 1 -6 11 -1 11 -4 0 -18 -12 -15 -12
-16 1 -8 12 7 13 6 3 -6 -6 -8 -14 -32 -18 -54 -25 -153 -58 -289 -74 -308 -5
-7 -23 -49 -41 -94 -17 -46 -35 -83 -40 -83 -5 0 -11 -10 -15 -22 -9 -32 -18
-53 -58 -138 -61 -128 -97 -212 -97 -227 0 -8 -3 -12 -8 -9 -4 2 -23 -34 -42
-80 -19 -46 -38 -84 -41 -84 -3 0 -14 -19 -24 -42 -22 -53 -53 -114 -117 -238
-28 -52 -64 -122 -80 -155 -17 -33 -34 -62 -38 -65 -4 -3 -24 -39 -43 -81 -20
-43 -39 -79 -44 -80 -4 -2 -21 -33 -38 -69 -16 -36 -34 -69 -41 -75 -6 -5 -28
-46 -49 -90 -21 -44 -42 -82 -45 -85 -14 -9 -78 -138 -73 -144 3 -3 -2 -8 -11
-12 -15 -6 -37 -42 -40 -65 -1 -4 -16 -30 -35 -59 -19 -29 -49 -82 -67 -119
-18 -36 -33 -62 -34 -56 0 5 -18 -28 -40 -72 -22 -45 -44 -84 -50 -88 -5 -3
-24 -36 -42 -73 -18 -37 -36 -69 -41 -70 -8 -4 -40 -61 -43 -77 -3 -16 -44
-81 -44 -70 0 5 -19 -30 -42 -77 -22 -48 -45 -85 -50 -82 -7 5 -10 -3 -7 -22
0 -4 -3 -10 -8 -13 -4 -3 -17 -24 -28 -46 -10 -22 -26 -49 -35 -61 -8 -11 -31
-52 -50 -90 -19 -38 -41 -76 -49 -84 -7 -8 -20 -29 -28 -47 -7 -18 -31 -62
-53 -98 -22 -36 -46 -81 -54 -100 -8 -19 -20 -35 -25 -35 -6 0 -11 -4 -11 -9
0 -17 -77 -171 -82 -165 -5 4 -50 -110 -73 -186 -4 -14 -12 -28 -18 -31 -13
-9 -14 -138 -1 -147 6 -4 14 -17 18 -28 16 -53 150 -153 204 -154 7 0 11 -4 8
-9 -6 -9 121 -43 214 -57 81 -12 273 -11 360 3 96 16 202 42 210 52 3 3 32 17
65 29 77 30 118 52 128 69 4 7 14 13 22 13 17 0 77 38 120 75 84 74 153 144
174 177 12 21 28 41 34 45 13 8 77 109 77 121 0 4 11 17 24 30 14 12 34 43 46
67 12 25 26 45 31 45 5 0 14 12 19 26 6 15 20 40 31 55 11 16 17 29 13 29 -4
0 4 12 18 28 13 15 34 46 46 69 29 58 46 87 53 93 4 3 17 25 30 50 12 25 32
58 43 74 12 16 38 64 58 105 20 42 37 72 38 66 0 -5 18 27 40 72 22 45 47 92
57 103 10 11 18 24 18 28 1 11 47 96 55 102 7 5 43 68 45 80 3 13 41 86 47 91
4 3 22 34 39 70 17 35 38 72 47 82 8 9 12 17 9 17 -4 0 5 16 18 36 14 20 25
43 25 50 0 7 10 25 23 41 13 15 38 60 57 100 18 40 37 70 41 68 4 -3 12 8 18
23 23 55 121 138 175 149 50 9 58 9 121 0 49 -7 139 -35 120 -37 -5 -1 16 -10
47 -20 32 -10 71 -29 89 -42 50 -37 118 -106 111 -113 -4 -4 -2 -5 4 -3 6 2
29 -13 50 -33 22 -19 42 -35 45 -35 3 1 18 -14 33 -31 15 -18 33 -33 38 -33 6
0 32 -19 58 -42 142 -128 178 -163 176 -168 -3 -6 31 -40 36 -35 2 2 22 -22
43 -55 22 -32 42 -56 45 -54 4 5 15 -14 57 -96 10 -19 27 -47 37 -62 9 -15 29
-60 43 -100 14 -40 29 -77 33 -83 45 -59 43 -428 -3 -457 -9 -6 -8 -8 3 -8 10
0 11 -3 4 -8 -7 -4 -19 -27 -27 -52 -8 -25 -21 -58 -28 -75 -7 -16 -13 -36
-15 -44 -1 -8 -7 -17 -12 -20 -13 -8 -46 -109 -67 -207 -10 -44 -21 -81 -24
-84 -9 -7 -69 -289 -77 -362 -4 -32 -10 -56 -13 -53 -4 2 -7 -7 -7 -20 0 -13
3 -22 6 -20 3 2 7 -6 7 -18 2 -17 0 -19 -7 -7 -9 13 -10 13 -10 -1 0 -8 6 -21
13 -28 9 -11 9 -13 0 -7 -7 4 -13 2 -13 -3 0 -6 5 -11 10 -11 6 0 10 -12 10
-28 0 -50 66 -280 87 -300 7 -7 13 -19 13 -26 0 -16 60 -149 70 -156 4 -3 22
-33 40 -67 17 -35 35 -63 39 -63 4 0 20 -20 35 -45 25 -40 78 -103 121 -145 8
-8 23 -24 33 -34 9 -11 30 -31 46 -45 16 -14 41 -38 55 -52 14 -14 44 -37 67
-51 22 -15 47 -33 56 -41 8 -8 41 -30 74 -48 32 -18 62 -37 65 -41 3 -5 43
-24 89 -44 47 -19 89 -39 95 -43 10 -8 112 -42 170 -57 17 -4 32 -8 35 -9 18
-5 91 -16 96 -15 4 1 10 -3 14 -10 4 -6 27 -13 51 -16 24 -2 71 -7 104 -11
153 -18 524 0 560 27 8 6 76 18 145 25 8 1 25 5 37 9 13 4 35 9 50 12 16 3 53
11 83 19 30 7 62 15 70 17 8 1 17 6 20 9 3 4 58 23 122 43 64 21 118 41 120
45 2 4 50 23 108 41 58 19 107 38 111 42 5 8 178 64 229 74 13 3 27 9 30 13 5
8 185 63 248 76 17 4 32 10 32 15 0 4 17 11 38 15 58 11 75 14 102 20 14 3 40
8 59 10 18 3 37 7 41 10 5 3 57 8 117 11 66 3 111 10 115 17 5 7 8 8 8 2 0
-14 41 -17 56 -4 8 7 14 7 19 -1 3 -5 11 -10 16 -10 6 0 7 6 3 13 -6 9 -5 9 7
0 16 -13 49 -17 214 -29 50 -3 101 -8 115 -9 14 -2 49 -4 78 -4 40 -1 51 -4
46 -13 -5 -8 0 -7 11 2 11 9 16 10 11 3 -4 -7 -2 -13 3 -13 6 0 11 6 11 13 0
9 2 9 8 0 5 -8 56 -14 147 -19 196 -9 193 -9 202 -18 4 -5 2 -6 -4 -2 -7 4
-13 3 -13 -3 0 -5 8 -10 18 -10 85 -3 1069 -6 1144 -3 85 3 96 5 92 20 -5 15
-4 15 6 0 6 -10 15 -18 20 -18 6 0 10 8 10 18 1 15 2 15 17 -3 11 -14 14 -15
10 -4 -4 12 1 17 19 17 21 0 23 -3 12 -17 -11 -14 -10 -13 7 1 15 13 48 18
136 23 135 7 140 8 158 19 10 6 12 5 7 -2 -4 -7 -3 -12 3 -12 5 0 11 4 13 9 2
5 53 12 114 15 61 4 120 9 130 11 11 2 43 4 72 4 29 1 52 6 52 12 0 5 -4 8 -8
5 -4 -2 -14 -1 -21 4 -9 5 -1 8 20 8 19 -1 63 3 99 7 85 10 109 13 143 14 20
1 26 5 21 14 -5 7 0 6 11 -3 10 -8 16 -10 13 -4 -6 9 152 37 210 36 21 0 21 1
6 12 -12 9 -13 13 -3 13 42 1 115 16 128 26 12 10 13 9 6 -3 -7 -13 -6 -13 7
-2 8 6 52 17 97 24 50 7 77 14 69 19 -8 6 0 9 22 9 20 0 41 5 47 11 5 5 28 12
49 15 21 3 41 9 44 13 3 5 37 15 77 22 39 7 71 18 70 24 -1 5 17 14 41 19 23
6 42 13 42 17 0 4 25 13 55 19 30 6 55 16 55 21 0 5 11 9 24 9 13 0 26 5 28
12 3 8 66 12 229 14 225 3 243 4 354 23 91 16 109 20 153 35 22 8 44 11 48 8
4 -4 4 -2 1 5 -5 7 7 16 30 23 21 6 57 20 80 31 24 10 48 19 55 19 6 0 8 3 5
6 -4 4 24 22 61 41 37 19 72 41 78 49 6 8 15 14 19 14 5 0 24 12 44 27 20 16
40 27 44 25 4 -1 10 5 13 13 4 9 25 29 48 44 33 23 191 174 253 242 42 46 63
67 101 106 23 23 42 45 42 49 0 3 11 19 25 36 14 16 25 26 25 22 0 -4 14 14
31 39 17 26 41 54 52 62 12 8 18 15 14 15 -4 0 4 12 18 28 15 15 33 39 41 55
8 15 19 27 24 27 5 0 23 23 41 50 18 27 36 50 40 50 4 0 24 25 44 55 21 30 40
55 44 55 10 0 66 90 76 119 3 12 10 21 15 21 5 0 23 28 40 62 17 35 35 65 39
68 11 8 78 164 79 184 0 5 5 12 10 15 10 6 58 124 67 165 2 10 12 30 22 45 9
14 30 62 45 105 15 44 32 82 36 85 8 6 70 161 77 195 3 11 9 22 14 25 5 4 23
44 40 90 17 46 37 94 44 105 7 12 29 59 47 106 19 47 37 87 42 88 4 2 8 7 8
12 0 4 8 25 17 46 9 22 18 44 19 50 1 7 20 49 42 95 22 46 47 102 57 124 10
22 23 47 30 55 8 8 28 43 45 78 24 45 38 62 54 63 28 2 38 4 56 12 8 3 49 11
90 16 41 6 86 13 100 15 29 6 223 33 295 42 28 3 55 10 60 14 6 4 28 11 50 14
22 4 63 18 92 31 43 20 55 31 73 70 12 26 24 63 27 81 3 19 9 32 12 30 4 -3
12 30 19 72 7 42 14 88 17 102 11 50 7 177 -5 197 -26 42 -97 55 -298 58 -194
2 -220 7 -270 50 -18 15 -21 25 -16 48 3 16 7 35 8 41 8 43 19 83 26 91 4 6
13 28 20 50 29 96 53 154 61 149 5 -3 9 0 9 7 0 19 71 153 85 161 7 5 25 28
39 53 15 24 32 48 39 52 7 4 27 27 46 51 18 23 37 40 41 37 5 -3 11 3 15 13 6
21 69 82 84 82 6 0 14 6 18 14 20 33 57 41 203 41 163 0 186 7 243 72 18 20
42 48 55 62 12 14 32 46 44 71 12 25 28 51 35 58 7 7 14 18 14 23 3 17 5 24
24 64 10 22 19 42 20 45 8 30 18 50 24 50 5 0 19 28 31 63 13 34 41 98 63 142
23 44 42 86 43 94 2 7 11 23 22 35 16 18 46 64 89 140 7 11 13 17 13 12 0 -6
11 5 25 24 21 29 24 42 21 91 -4 69 -8 76 -49 88 -62 19 -107 38 -102 42 2 3
-39 20 -93 39 -53 18 -99 37 -102 41 -4 6 -120 44 -127 41 -2 0 -17 4 -35 9
-18 5 -53 13 -78 16 -25 3 -52 7 -60 9 -8 1 -32 3 -53 3 -28 1 -36 4 -31 14 6
10 4 10 -7 0 -14 -14 -33 -18 -25 -5 6 10 -75 9 -91 -1 -6 -4 -14 -1 -16 5 -4
10 -6 10 -6 1 -1 -7 -9 -13 -18 -13 -15 0 -16 2 -3 10 8 5 10 10 4 10 -5 0
-14 -4 -20 -9 -5 -5 -73 -12 -152 -16 -78 -3 -151 -8 -162 -10 -10 -2 -54 -6
-97 -9 -136 -11 -187 -18 -225 -33 -21 -8 -38 -19 -38 -24 0 -5 -13 -15 -28
-23 -35 -18 -167 -115 -202 -148 -14 -13 -42 -34 -62 -47 -21 -12 -38 -26 -38
-31 0 -4 -20 -23 -45 -41 -24 -19 -45 -40 -45 -46 0 -7 -5 -13 -10 -13 -14 0
-148 -137 -171 -175 -11 -16 -19 -26 -19 -21 0 5 -9 -3 -20 -17 -11 -14 -20
-29 -20 -34 0 -5 -16 -24 -35 -43 -19 -19 -35 -40 -35 -45 0 -6 -11 -27 -25
-48 -14 -20 -22 -37 -18 -37 4 0 0 -6 -9 -14 -19 -14 -88 -157 -88 -182 0 -8
-4 -13 -9 -10 -5 3 -12 -6 -16 -22 -12 -43 -13 -43 -41 -124 -17 -48 -31 -75
-38 -71 -6 3 -8 3 -4 -2 4 -4 1 -24 -7 -44 -8 -20 -24 -70 -36 -111 -12 -41
-26 -77 -30 -80 -5 -3 -10 -15 -12 -25 -6 -32 -29 -108 -42 -140 -7 -16 -16
-45 -20 -63 -4 -18 -10 -30 -15 -27 -4 3 -11 -7 -14 -23 -13 -53 -69 -196 -82
-209 -7 -7 -16 -23 -19 -36 -4 -12 -15 -41 -26 -64 -10 -24 -19 -50 -19 -58 0
-9 -4 -14 -9 -11 -5 3 -11 -5 -15 -17 -5 -23 -42 -47 -72 -47 -8 0 -13 -4 -10
-9 5 -8 -36 -22 -120 -40 -22 -4 -130 -7 -240 -5 -109 1 -219 -1 -244 -4 -41
-6 -46 -10 -58 -47 -7 -22 -17 -42 -23 -45 -5 -4 -11 -15 -13 -26 -3 -10 -16
-54 -30 -97 -14 -43 -26 -83 -26 -90 0 -7 -8 -25 -17 -42 -11 -21 -17 -60 -18
-130 -3 -117 2 -155 21 -155 8 0 14 -4 14 -8 0 -4 48 -16 108 -25 59 -9 118
-19 132 -22 14 -3 66 -12 115 -21 50 -9 94 -20 99 -25 6 -5 23 -9 39 -9 l28 0
-7 -72 c-3 -40 -7 -78 -7 -85 0 -7 -4 -10 -7 -8 -4 3 -13 -17 -20 -43 -6 -26
-18 -63 -25 -82 -7 -19 -13 -38 -13 -43 -1 -23 -15 -68 -20 -63 -3 3 -13 -18
-23 -46 -10 -29 -16 -54 -14 -56 2 -2 -5 -24 -15 -48 -11 -24 -20 -46 -20 -49
-3 -31 -14 -64 -19 -61 -4 3 -24 -51 -46 -119 -21 -69 -41 -126 -45 -127 -4
-2 -23 -52 -43 -112 -19 -59 -37 -102 -40 -95 -3 8 -6 3 -6 -11 -1 -15 -5 -30
-11 -36 -5 -5 -11 -18 -13 -29 -2 -11 -9 -32 -14 -46 -6 -14 -17 -44 -24 -67
-7 -23 -15 -40 -18 -37 -2 3 -20 -36 -38 -87 -19 -51 -38 -97 -43 -102 -4 -4
-6 -15 -3 -24 4 -9 2 -13 -4 -9 -5 3 -24 -31 -43 -76 -18 -45 -38 -89 -44 -97
-7 -8 -27 -51 -46 -95 -19 -44 -40 -84 -47 -88 -7 -4 -13 -13 -13 -20 0 -7
-12 -37 -27 -67 -27 -57 -30 -63 -32 -81 0 -5 -5 -8 -10 -4 -5 3 -13 -4 -16
-16 -7 -20 -10 -17 -33 24 -14 26 -29 44 -33 41 -5 -3 -9 2 -9 10 0 8 -9 20
-21 26 -11 7 -18 17 -15 25 2 7 -4 15 -16 18 -11 3 -17 10 -13 16 3 6 -1 11
-9 11 -9 0 -16 5 -16 10 0 6 -5 9 -12 8 -7 -2 -12 2 -13 9 0 15 -49 60 -75 68
-11 3 -20 11 -20 16 0 6 -4 8 -9 5 -5 -3 -11 3 -14 14 -3 12 -14 20 -27 20
-11 0 -19 4 -15 9 3 5 -3 12 -14 16 -10 3 -29 14 -41 25 -12 11 -27 17 -31 14
-5 -3 -9 -1 -9 4 0 9 -101 62 -119 62 -6 0 -11 7 -11 15 0 8 -4 16 -10 16 -20
3 -25 4 -37 12 -7 5 -13 5 -13 2 0 -4 -7 1 -16 9 -8 9 -23 16 -33 16 -34 0
-40 20 -19 56 11 19 23 32 27 30 4 -3 13 11 20 31 13 35 19 45 49 78 6 7 12
18 12 24 0 6 4 11 9 11 5 0 12 14 16 30 4 17 10 28 14 25 5 -2 13 14 20 36 7
22 18 42 25 45 8 3 19 25 26 50 7 24 16 44 21 44 4 0 10 14 14 30 4 16 11 30
16 30 5 0 9 9 9 21 0 11 5 17 10 14 6 -3 10 4 10 16 0 12 9 36 19 53 11 17 20
34 20 39 0 35 15 96 22 91 5 -3 9 7 9 23 0 20 3 24 9 14 6 -9 10 -3 14 20 7
45 11 62 19 74 3 6 9 29 13 53 4 23 11 42 16 42 5 0 9 5 9 11 0 5 -5 7 -11 3
-6 -3 -3 5 6 20 10 14 13 26 9 26 -5 0 -4 4 2 8 7 4 15 34 19 67 3 33 11 62
16 66 6 3 9 10 8 15 -1 5 1 41 6 79 11 101 14 124 16 177 1 27 6 45 12 41 5
-3 4 4 -2 15 -7 14 -8 23 -1 27 6 4 10 54 10 119 0 76 4 116 13 125 9 11 9 13
0 7 -8 -4 -13 -1 -13 8 0 9 6 16 13 16 9 0 9 2 -1 8 -8 6 -12 43 -13 125 0 64
-4 117 -8 117 -4 0 -8 19 -10 43 -13 198 -24 312 -31 317 -4 3 -10 48 -14 100
-7 112 -9 121 -20 139 -7 10 -5 12 3 6 10 -6 11 -3 2 13 -6 11 -11 34 -11 51
0 16 -6 32 -12 34 -10 4 -9 6 1 6 10 1 10 5 3 14 -9 11 -20 110 -21 195 -1 24
-5 31 -13 26 -10 -6 -10 -5 -1 7 8 9 9 19 3 25 -8 8 -18 92 -19 172 -1 24 -5
31 -13 26 -8 -5 -7 0 2 11 9 11 10 16 3 11 -9 -5 -13 1 -13 18 0 14 -4 26 -10
26 -5 0 -10 9 -10 19 0 11 -5 32 -12 48 -6 15 -10 32 -9 37 1 5 -4 13 -11 17
-7 5 -13 13 -13 18 0 5 -12 21 -28 35 -15 14 -26 27 -25 28 5 7 -47 58 -59 58
-7 0 -13 7 -13 15 0 9 -10 20 -22 25 -14 5 -17 9 -8 10 8 1 -4 9 -28 19 -23 9
-40 20 -36 24 4 4 0 7 -9 7 -10 0 -17 4 -17 10 0 5 -11 12 -25 16 -14 3 -25
10 -25 15 0 4 -19 14 -42 21 -24 6 -50 20 -59 30 -9 10 -24 18 -33 18 -9 0
-16 4 -16 10 0 5 -27 15 -59 21 -33 7 -58 16 -55 21 3 4 -7 8 -21 8 -14 0 -24
4 -21 9 3 5 -14 12 -39 15 -25 4 -45 13 -45 19 0 7 -4 6 -10 -3 -6 -10 -10
-11 -10 -2 0 6 -10 12 -22 12 -13 0 -36 7 -51 15 -15 8 -25 10 -22 5 4 -6 2
-10 -4 -10 -5 0 -11 4 -13 9 -1 6 -28 13 -58 16 -30 4 -59 11 -65 16 -5 5 -24
9 -43 9 -19 0 -31 4 -27 10 4 6 -8 11 -29 11 -20 1 -39 2 -43 3 -5 2 -52 6
-105 10 -54 5 -95 12 -92 17 3 5 1 9 -5 9 -5 0 -12 -6 -14 -12 -4 -10 -6 -10
-6 0 -1 8 -19 12 -55 12 -30 0 -56 4 -58 9 -3 8 -177 20 -291 21 -32 0 -46 4
-41 11 5 8 1 8 -14 0 -13 -7 -23 -7 -27 -2 -5 10 -23 9 -60 -4 -16 -6 -17 -5
-5 4 11 8 -78 10 -314 10 -180 -1 -322 -5 -315 -10 8 -5 0 -7 -21 -5 -30 2
-35 6 -33 27 4 56 8 69 19 69 6 0 16 37 24 88 7 48 17 93 24 101 8 11 8 13 -1
7 -7 -4 -13 -3 -13 3 0 5 5 11 12 13 8 3 12 58 13 184 3 198 -2 275 -16 253
-6 -10 -9 -4 -10 19 -1 17 -3 37 -4 42 -1 6 -3 19 -4 30 0 11 -10 28 -21 38
-11 9 -25 34 -31 54 -5 21 -15 37 -21 35 -7 -1 -12 5 -13 13 -1 8 -6 14 -13
12 -7 -1 -16 6 -19 15 -7 19 -33 48 -42 48 -3 0 -5 3 -4 7 2 4 -13 12 -32 18
-19 6 -35 18 -35 26 0 8 -13 17 -30 20 -16 4 -28 10 -25 14 3 4 -22 13 -55 21
-36 8 -56 17 -52 23 3 6 -3 4 -13 -4 -11 -9 -16 -10 -11 -2 5 8 -2 12 -24 12
-17 0 -29 4 -26 9 4 6 -64 10 -165 11 -125 0 -169 -2 -164 -11 5 -8 1 -8 -15
1 -15 8 -20 8 -16 1 4 -6 0 -11 -9 -11 -8 0 -23 -4 -33 -9 -18 -9 -109 -33
-129 -34 -7 0 -10 -4 -7 -9 5 -7 -10 -12 -29 -9 -5 1 -11 -8 -14 -19 -3 -11
-9 -21 -14 -21 -5 -1 -13 -2 -18 -3 -5 0 -21 -13 -36 -28 -15 -16 -34 -28 -42
-28 -9 0 -13 -6 -11 -12 3 -7 -4 -21 -14 -30 -10 -10 -18 -15 -18 -11 0 4 -6
-2 -14 -12 -8 -11 -12 -23 -9 -28 7 -11 -17 -38 -28 -31 -5 3 -12 -13 -15 -36
-4 -22 -10 -43 -15 -46 -4 -2 -5 -12 -2 -21 4 -10 2 -14 -5 -9 -7 4 -13 -19
-18 -74 -3 -44 -10 -78 -13 -75 -4 2 -7 -7 -7 -20 0 -13 3 -22 6 -20 3 2 7 -6
7 -18 2 -17 0 -19 -7 -7 -8 12 -10 11 -10 -7 0 -12 6 -24 13 -26 10 -4 10 -6
0 -6 -7 -1 -13 -9 -13 -18 0 -15 2 -15 9 -4 7 10 9 7 8 -12 -1 -14 -5 -23 -9
-20 -5 2 -8 -1 -8 -6 0 -6 5 -11 10 -11 14 0 12 -33 -2 -49 -10 -11 -10 -13 0
-7 9 5 12 -4 13 -36 1 -56 8 -100 19 -113 4 -5 11 -39 15 -75 7 -71 22 -152
24 -132 0 6 6 12 11 12 6 0 9 -3 8 -7 -4 -15 25 -153 32 -153 4 0 7 -7 7 -14
0 -8 -3 -15 -6 -14 -36 4 -81 -4 -76 -13 4 -6 1 -9 -6 -8 -24 4 -159 -13 -159
-20 0 -4 -15 -8 -32 -9 -18 -2 -46 -5 -63 -9 -16 -3 -43 -5 -60 -5 -25 1 -27
0 -10 -8 17 -7 15 -9 -12 -9 -18 -1 -33 -5 -33 -11 0 -5 -5 -10 -11 -10 -5 0
-8 4 -5 8 3 5 -1 9 -9 9 -8 0 -12 -4 -10 -8 3 -4 -16 -10 -41 -14 -25 -3 -55
-8 -67 -11 -12 -2 -36 -5 -53 -6 -18 -1 -31 -5 -29 -8 2 -3 -9 -11 -26 -17
-16 -6 -27 -7 -23 -2 3 5 0 9 -5 9 -6 0 -11 -4 -11 -10 0 -5 -11 -10 -24 -10
-13 0 -26 -4 -28 -9 -3 -8 -29 -14 -125 -28 -24 -3 -40 -9 -38 -13 3 -4 -11
-10 -30 -12 -44 -5 -44 3 0 36 19 15 35 32 35 39 1 17 46 67 61 67 7 0 10 3 6
6 -6 6 38 65 91 123 13 14 30 40 39 58 8 18 19 33 23 33 5 0 25 31 46 69 21
40 42 67 48 64 6 -3 8 -3 4 1 -3 4 11 43 33 86 21 44 39 86 39 95 0 9 4 14 9
11 5 -3 23 29 41 72 19 42 39 84 45 92 10 13 36 65 40 80 16 56 40 128 46 140
4 8 12 42 18 75 33 188 35 303 6 353 -11 17 -23 32 -29 32 -5 0 -15 8 -22 18
-11 15 -28 17 -156 13 -242 -6 -398 -6 -518 2 -63 4 -155 10 -205 13 -49 3
-110 7 -135 10 -25 3 -115 7 -200 9 -134 3 -163 1 -215 -17z m2533 -228 c90
-41 195 -182 253 -341 30 -82 31 -87 24 -204 -8 -165 -31 -319 -66 -454 -16
-63 -29 -128 -29 -146 0 -34 -33 -85 -55 -85 -35 0 -60 200 -50 400 4 74 8
142 10 150 4 22 -13 225 -26 299 -14 89 -30 114 -125 207 -46 45 -88 93 -94
108 -13 36 2 63 43 75 48 14 68 12 115 -9z m-2480 -297 c3 -67 0 -84 -24 -131
-15 -29 -35 -57 -45 -63 -11 -5 -19 -16 -19 -23 0 -7 -11 -23 -25 -36 -14 -13
-25 -27 -25 -31 0 -4 -32 -38 -72 -76 -106 -101 -118 -112 -118 -108 0 2 -19
-14 -42 -36 -23 -21 -45 -39 -49 -39 -4 0 -21 -13 -39 -30 -18 -16 -38 -30
-44 -30 -7 0 -25 -13 -42 -28 -39 -38 -63 -47 -57 -21 3 10 8 17 12 14 4 -2
24 28 45 66 21 39 44 73 52 76 8 3 14 11 14 18 0 6 14 31 30 53 17 23 27 42
23 42 -5 0 0 5 9 10 9 6 31 35 48 65 17 30 36 55 40 55 5 0 17 14 25 31 17 31
283 299 298 299 2 0 4 -35 5 -77z m8823 -624 c65 -10 66 -11 64 -40 -3 -38
-22 -59 -52 -59 -13 0 -22 -4 -19 -8 3 -5 -11 -9 -32 -10 -87 -3 -295 -59
-285 -76 3 -6 3 -8 -2 -4 -9 9 -119 -47 -161 -81 -16 -14 -44 -37 -62 -50 -18
-13 -32 -30 -32 -38 0 -8 -4 -12 -9 -9 -9 6 -63 -50 -74 -77 -4 -10 -11 -15
-17 -12 -5 3 -10 3 -10 -2 0 -4 -11 -21 -25 -37 -14 -16 -25 -32 -25 -36 0 -4
-15 -22 -32 -41 -18 -19 -34 -41 -36 -49 -2 -8 -13 -26 -25 -40 -24 -27 -38
-50 -74 -122 -13 -27 -28 -48 -32 -48 -4 0 -20 -22 -35 -50 -15 -27 -32 -55
-39 -62 -16 -18 -64 -91 -65 -101 0 -4 -15 -24 -31 -43 -17 -19 -31 -39 -31
-44 0 -20 -53 -69 -80 -75 -17 -4 -30 -11 -30 -16 0 -5 -16 -9 -35 -9 -19 0
-35 5 -35 11 0 5 4 7 10 4 5 -3 7 0 5 7 -3 8 3 23 14 35 11 11 35 51 54 87 18
36 36 64 38 61 3 -2 18 20 34 50 15 30 38 65 49 77 12 12 21 25 21 28 0 3 10
21 23 41 12 20 22 41 22 47 0 6 8 17 19 24 10 7 26 29 36 48 10 19 31 47 46
61 16 14 29 30 29 36 0 6 6 16 14 22 8 7 22 27 31 46 9 19 19 35 23 35 4 0 23
29 42 65 19 35 36 62 38 60 3 -2 21 22 42 53 53 83 197 222 230 222 6 0 9 4 6
9 -6 9 130 81 152 81 7 0 11 4 8 8 -3 5 0 9 7 10 7 0 44 7 82 15 74 14 137 13
246 -4z m-13001 -246 c17 -10 32 -29 35 -45 4 -16 11 -25 16 -22 6 3 9 -12 8
-40 -2 -24 -6 -43 -11 -40 -4 3 -8 -3 -9 -13 -2 -41 -8 -71 -23 -128 -9 -33
-18 -75 -21 -94 -2 -18 -8 -43 -12 -55 -8 -25 -9 -32 -12 -71 -1 -23 -3 -27
-11 -15 -8 12 -10 11 -10 -6 0 -30 -55 -244 -75 -290 -9 -21 -30 -79 -45 -128
-16 -48 -33 -93 -38 -100 -5 -6 -26 -56 -47 -111 -21 -55 -44 -105 -51 -112
-7 -7 -18 -30 -24 -50 -7 -21 -16 -42 -20 -48 -4 -5 -13 -27 -20 -48 -6 -21
-15 -36 -18 -33 -7 7 -72 -129 -72 -150 0 -9 -4 -13 -8 -10 -5 3 -26 -32 -48
-77 -21 -45 -42 -83 -46 -85 -4 -2 -23 -37 -42 -78 -20 -41 -40 -74 -46 -74
-5 0 -10 -6 -10 -13 0 -7 -11 -29 -25 -50 -14 -20 -23 -37 -19 -37 3 0 -5 -15
-18 -32 -14 -18 -39 -60 -57 -93 -17 -32 -35 -62 -40 -65 -4 -3 -20 -27 -36
-55 -34 -63 -55 -92 -55 -80 0 6 -8 -3 -18 -20 -26 -42 -41 -52 -90 -63 -45
-11 -48 -8 -31 35 6 15 10 30 10 33 0 3 17 37 38 75 21 39 49 95 61 125 13 30
29 62 35 70 6 8 27 51 45 95 19 44 40 86 46 92 7 7 26 50 44 95 17 45 36 86
43 90 7 4 12 11 13 15 1 10 11 37 30 80 8 17 14 36 14 41 0 6 6 17 13 24 7 7
28 51 46 98 18 47 39 94 46 106 7 12 25 49 40 83 14 34 43 99 65 144 21 45 44
101 52 125 7 23 16 42 20 42 4 0 24 54 44 119 21 66 41 118 44 116 4 -2 7 1 7
8 1 7 8 39 17 72 47 169 52 410 13 629 -1 6 25 18 58 28 71 21 162 17 205 -9z
m7185 -93 c-2 -3 6 -7 18 -7 15 -2 18 0 8 6 -7 5 100 9 238 9 192 1 251 -1
251 -11 0 -7 3 -8 8 -2 11 16 52 18 52 3 0 -9 3 -9 10 2 8 12 13 13 30 3 11
-7 25 -13 30 -13 6 0 8 6 4 13 -6 10 -4 10 7 0 7 -7 20 -13 28 -13 14 0 14 1
1 10 -9 6 -10 10 -3 10 6 0 14 -4 17 -9 3 -4 32 -9 63 -10 70 -2 84 -4 102
-15 9 -6 12 -5 8 1 -3 5 0 10 8 10 8 0 12 -3 10 -7 -2 -4 23 -8 57 -9 34 -1
67 -6 74 -12 8 -7 14 -6 19 1 4 7 11 8 18 1 7 -5 50 -12 97 -16 47 -4 93 -9
103 -11 10 -2 38 -4 62 -5 24 -2 42 -6 39 -10 -2 -4 30 -10 71 -14 41 -4 72
-11 69 -16 -3 -5 11 -9 30 -9 20 0 36 -4 36 -9 0 -4 21 -12 48 -15 26 -4 63
-10 82 -13 19 -3 38 -10 41 -15 3 -5 21 -12 40 -15 18 -2 39 -12 45 -21 7 -9
18 -17 26 -18 32 -2 78 -17 78 -26 0 -5 6 -8 13 -7 19 2 57 -12 57 -22 0 -5 9
-9 20 -9 11 0 20 -5 20 -11 0 -5 13 -15 30 -20 16 -6 28 -14 25 -19 -3 -4 9
-10 25 -13 23 -5 28 -10 23 -23 -4 -12 -3 -15 5 -10 7 4 12 3 12 -3 0 -6 11
-13 24 -17 21 -5 45 -37 42 -57 0 -5 7 -13 17 -18 9 -6 17 -17 17 -24 0 -8 5
-15 10 -15 6 0 10 -11 10 -25 0 -14 5 -25 10 -25 6 0 10 -26 9 -61 -1 -38 -5
-56 -10 -47 -6 8 -9 -1 -9 -27 0 -30 -3 -36 -10 -25 -8 12 -10 11 -10 -7 0
-12 -6 -28 -14 -35 -7 -8 -19 -31 -27 -51 -8 -22 -18 -36 -26 -33 -6 3 -15 -5
-19 -17 -8 -25 -43 -61 -69 -71 -9 -3 -19 -15 -22 -26 -3 -11 -9 -17 -14 -14
-5 3 -9 0 -9 -6 0 -23 -59 -47 -107 -43 -247 17 -676 17 -923 -2 -25 -1 -64
-3 -88 -4 -30 -1 -41 -5 -36 -13 5 -7 3 -8 -7 -2 -20 12 -38 14 -44 4 -3 -5 4
-7 15 -5 11 2 20 0 20 -4 0 -13 -256 -18 -443 -10 -65 3 -74 5 -56 15 20 10
18 12 -22 13 -24 0 -51 3 -59 4 -8 2 -37 7 -65 12 -27 4 -52 11 -55 15 -3 4
-23 12 -45 17 -22 5 -39 15 -38 21 2 7 -2 12 -7 12 -19 0 -25 2 -37 12 -7 5
-17 7 -22 4 -6 -4 -15 3 -21 14 -6 11 -16 19 -22 17 -7 -1 -17 8 -23 21 -5 12
-16 22 -24 22 -18 0 -61 46 -61 66 0 7 -7 14 -15 14 -9 0 -21 11 -27 25 -6 14
-14 25 -17 25 -4 0 -13 20 -20 45 -7 25 -18 48 -24 52 -6 4 -7 1 -2 -7 5 -8 4
-11 -2 -7 -6 4 -14 28 -19 54 -4 27 -8 51 -10 56 -1 4 -2 28 -3 53 -1 27 -5
43 -11 39 -5 -3 -10 -1 -10 4 0 6 5 11 12 11 9 0 9 3 0 12 -15 15 -16 32 -1
22 8 -5 8 -1 0 13 -5 11 -6 24 -2 29 8 9 37 183 33 197 -4 12 16 8 21 -5 3 -7
6 -3 7 10 2 12 3 25 4 30 1 4 6 26 10 50 4 23 12 40 17 36 5 -3 9 4 9 15 0 18
7 21 43 22 23 1 51 1 62 0 15 -2 17 0 6 7 -9 7 -3 9 22 9 20 -1 34 -4 32 -7z
m-1121 -142 c3 -13 6 -36 6 -51 0 -16 4 -26 10 -22 6 4 10 -5 10 -20 0 -18 4
-24 13 -19 7 5 6 0 -3 -11 -8 -10 -10 -16 -4 -12 15 9 22 -43 19 -153 -3 -133
-4 -142 -15 -135 -6 4 -10 -5 -10 -19 0 -14 -4 -26 -10 -26 -5 0 -10 -9 -10
-19 0 -11 -5 -32 -12 -48 -6 -15 -10 -34 -9 -42 1 -7 -2 -10 -8 -7 -6 4 -13
-4 -16 -17 -4 -14 -18 -30 -31 -36 -14 -6 -24 -17 -22 -23 2 -7 -1 -14 -6 -15
-5 -1 -14 -12 -20 -25 -6 -13 -21 -24 -33 -26 -14 -2 -20 -8 -17 -17 4 -8 -7
-18 -30 -26 -20 -7 -36 -16 -36 -20 0 -4 -16 -13 -35 -19 -19 -6 -35 -18 -35
-26 0 -8 -9 -14 -21 -14 -12 0 -35 -6 -52 -14 -27 -12 -48 -17 -122 -31 -5 -1
-27 -3 -49 -3 -27 -2 -37 -6 -33 -15 6 -16 -33 -19 -233 -20 -181 0 -290 6
-284 15 3 5 9 6 14 3 5 -3 11 -2 14 3 2 4 -7 8 -22 8 -15 0 -76 4 -137 8 -60
5 -135 10 -165 12 -73 4 -520 4 -590 0 -77 -5 -201 -26 -196 -35 3 -4 -10 -8
-27 -9 -18 -2 -48 -7 -67 -12 -19 -5 -55 -12 -80 -15 -84 -11 -180 -40 -180
-54 0 -8 -78 -30 -102 -29 -29 2 -27 50 3 81 10 12 19 25 19 30 0 11 47 57 52
51 2 -2 19 12 37 31 18 19 37 35 41 35 16 0 100 57 95 64 -3 3 -2 4 1 2 3 -3
24 6 45 20 21 13 39 22 39 19 0 -3 20 5 44 19 24 13 47 22 50 19 3 -4 6 -2 6
4 0 11 119 73 140 73 6 0 8 5 5 10 -3 6 1 10 10 10 9 0 34 9 55 20 22 11 40
18 40 15 0 -3 14 2 31 11 17 8 40 17 52 20 11 2 23 7 26 12 7 10 98 45 181 70
30 9 56 19 58 24 2 4 50 22 108 40 57 17 101 34 98 37 -6 6 158 53 236 67 13
3 28 11 32 17 4 7 8 8 8 2 0 -7 3 -6 8 0 10 15 133 49 222 61 25 4 48 11 51
16 3 4 19 10 36 11 17 1 29 5 26 10 -2 4 2 7 9 7 35 1 94 13 98 20 3 4 32 11
65 15 32 4 68 9 80 11 11 2 32 5 47 6 19 2 24 6 18 13 -6 8 -5 12 3 12 44 2
113 15 121 23 6 6 15 10 21 10 5 0 3 -5 -5 -10 -12 -7 -10 -9 7 -7 12 0 19 5
17 9 -3 4 5 8 18 9 13 0 32 2 43 4 11 2 52 7 90 10 39 4 74 11 80 16 5 5 21 9
36 9 19 0 28 -6 33 -22z m3468 -970 c5 -35 17 -48 14 -14 -2 15 -1 24 3 20 3
-3 6 -20 7 -37 0 -18 4 -66 8 -107 3 -41 9 -104 12 -140 3 -36 10 -70 15 -77
7 -7 6 -14 -2 -18 -7 -5 -8 -10 -1 -14 6 -3 14 -57 18 -119 4 -71 11 -112 18
-112 6 0 4 -5 -4 -10 -13 -9 -13 -10 0 -10 13 0 13 -1 0 -10 -10 -6 -11 -10
-2 -10 9 0 12 -25 12 -91 0 -69 3 -88 13 -83 9 6 9 5 0 -7 -7 -9 -12 -60 -12
-137 -1 -68 -6 -133 -12 -144 -7 -13 -7 -18 -1 -14 11 6 11 -12 0 -29 -3 -5
-9 -48 -13 -95 -8 -100 -8 -103 -16 -110 -4 -4 -30 -169 -32 -207 0 -6 -6 -9
-12 -7 -7 3 -16 -22 -23 -73 -7 -43 -17 -79 -22 -81 -6 -2 -10 -13 -10 -25 0
-35 -11 -67 -21 -61 -5 3 -9 -4 -9 -14 0 -11 -7 -33 -15 -48 -8 -16 -15 -40
-15 -53 0 -13 -3 -21 -7 -17 -5 4 -15 -16 -24 -46 -9 -29 -21 -52 -27 -50 -7
1 -13 -5 -13 -13 -3 -35 -19 -76 -35 -93 -8 -7 -14 -22 -14 -33 0 -10 -5 -18
-11 -17 -6 2 -17 -12 -23 -30 -6 -18 -17 -37 -25 -41 -7 -5 -12 -12 -12 -17 2
-25 -24 -72 -36 -67 -8 3 -13 2 -12 -3 4 -14 -24 -68 -38 -77 -8 -5 -11 -12
-8 -18 4 -5 1 -9 -5 -9 -6 0 -8 -4 -5 -10 3 -5 -1 -10 -10 -10 -8 0 -21 -11
-27 -25 -6 -14 -15 -25 -19 -25 -4 0 -13 -16 -19 -35 -6 -19 -18 -35 -26 -35
-8 0 -21 -15 -29 -32 -8 -18 -14 -30 -15 -26 0 10 -60 -49 -60 -61 0 -5 -6
-14 -14 -18 -8 -4 -22 -22 -30 -38 -9 -17 -16 -24 -16 -17 0 6 -5 12 -11 12
-5 0 -7 -4 -4 -10 3 -5 1 -10 -5 -10 -6 0 -9 -4 -6 -8 3 -5 -6 -15 -19 -22
-13 -7 -22 -17 -19 -22 5 -7 -10 -12 -28 -9 -5 0 -8 -3 -8 -9 0 -5 0 -13 -1
-17 0 -5 -11 -14 -25 -21 -13 -7 -24 -17 -24 -23 0 -5 -11 -14 -25 -19 -14 -5
-25 -16 -25 -24 0 -7 -13 -19 -30 -26 -16 -7 -27 -16 -24 -21 3 -5 -2 -9 -11
-9 -9 0 -19 -9 -22 -21 -4 -16 -8 -17 -14 -7 -7 10 -9 9 -9 -4 0 -10 -10 -20
-25 -24 -14 -3 -25 -10 -25 -14 0 -4 -14 -13 -30 -20 -17 -7 -33 -17 -37 -23
-3 -6 -1 -7 5 -3 7 4 12 2 12 -3 0 -6 -7 -11 -15 -11 -19 0 -58 -21 -68 -38
-5 -7 -12 -10 -17 -7 -5 3 -15 -3 -22 -12 -7 -10 -26 -25 -43 -33 -16 -8 -38
-21 -49 -30 -10 -8 -19 -14 -20 -13 -5 9 -46 -12 -46 -23 0 -8 -9 -14 -19 -14
-11 0 -26 -6 -33 -14 -8 -7 -30 -17 -49 -21 -46 -10 -71 -24 -64 -36 4 -5 0
-9 -7 -10 -27 -1 -48 -7 -77 -22 -25 -13 -57 -23 -101 -32 -26 -6 -49 -18 -45
-25 3 -4 -12 -11 -33 -15 -20 -4 -43 -11 -49 -17 -9 -8 -13 -7 -13 3 0 11 -2
12 -9 1 -8 -14 -15 -16 -98 -27 -35 -5 -53 -12 -53 -21 0 -8 -8 -14 -17 -15
-10 0 -27 -2 -38 -3 -11 -2 -47 -6 -80 -10 -33 -4 -63 -13 -67 -19 -5 -8 -8
-7 -8 3 0 10 -3 11 -8 4 -4 -6 -52 -15 -107 -19 -55 -4 -108 -9 -118 -11 -10
-2 -39 -4 -63 -5 -28 -2 -43 -7 -40 -14 2 -6 -9 -11 -28 -12 -17 0 -51 -3 -76
-6 -25 -3 -67 -6 -93 -6 -27 -1 -46 -5 -43 -9 3 -5 -1 -9 -9 -9 -8 0 -15 5
-15 11 0 7 -3 7 -8 -1 -20 -31 -677 -32 -735 -1 -14 7 -17 7 -13 -1 4 -6 3
-11 -3 -11 -5 0 -11 4 -13 9 -1 4 -32 11 -67 14 -35 4 -70 12 -78 19 -8 7 -25
13 -36 15 -12 1 -38 6 -57 9 -41 8 -55 10 -93 12 -16 1 -26 6 -23 11 3 5 -16
12 -42 16 -26 3 -56 9 -67 11 -11 3 -25 6 -32 6 -7 1 -10 5 -7 9 6 10 -7 17
-44 24 -17 3 -42 9 -55 14 -14 6 -28 7 -31 4 -3 -4 -6 -1 -6 5 0 6 -19 16 -42
23 -32 8 -38 13 -25 18 12 4 -1 11 -40 20 -32 7 -64 18 -70 23 -7 6 -28 15
-46 22 -18 6 -33 15 -34 20 -2 10 -60 38 -80 39 -7 0 -10 4 -8 8 3 4 -6 10
-19 13 -13 3 -26 15 -29 27 -3 12 -10 18 -16 15 -11 -7 -51 12 -63 29 -4 6
-11 10 -15 10 -30 2 -51 18 -46 33 3 9 2 14 -2 9 -5 -4 -21 4 -36 19 -15 14
-29 25 -31 24 -10 -8 -46 13 -42 24 3 9 -6 18 -25 24 -17 6 -31 15 -31 20 0 5
-14 15 -31 22 -17 8 -26 16 -19 20 6 4 -1 12 -17 19 -15 7 -33 21 -41 32 -7
10 -19 19 -27 19 -8 0 -12 6 -9 14 5 12 -15 27 -41 31 -5 0 -9 6 -8 12 1 6
-11 16 -28 23 -25 11 -27 15 -17 28 10 12 10 14 1 8 -7 -4 -13 -2 -13 3 0 6
-3 10 -8 8 -4 -1 -8 2 -9 6 -1 5 -13 18 -27 31 -14 12 -26 27 -26 33 0 6 -9
14 -19 18 -11 3 -23 15 -26 25 -3 11 -11 19 -18 17 -6 -1 -12 3 -12 8 -3 28
-18 55 -31 55 -8 0 -21 14 -28 30 -7 17 -15 27 -19 24 -3 -4 -9 5 -13 19 -3
15 -11 25 -18 24 -6 -1 -10 4 -9 11 2 6 -2 12 -7 12 -6 0 -10 7 -10 15 0 8
-10 24 -22 35 -13 12 -24 25 -24 31 -1 5 -2 14 -3 19 0 6 -8 10 -16 10 -9 0
-18 13 -22 31 -3 17 -12 33 -19 36 -7 2 -16 18 -19 34 -4 16 -11 27 -16 23 -5
-3 -9 2 -9 10 0 9 -4 16 -9 16 -5 0 -12 14 -16 30 -4 17 -10 30 -15 30 -4 0
-13 20 -19 45 -7 28 -17 45 -26 45 -8 0 -16 7 -16 15 -1 8 -2 18 -3 23 -1 4
-6 22 -10 40 -4 18 -11 30 -16 27 -4 -2 -10 13 -14 35 -3 21 -11 42 -18 46 -7
4 -8 3 -4 -4 4 -7 3 -12 -2 -12 -6 0 -12 15 -15 33 -15 93 -20 112 -27 117 -4
3 -13 32 -20 65 -6 33 -18 65 -25 70 -12 10 -16 26 -31 145 -4 30 -10 60 -15
65 -4 6 -11 47 -15 90 -3 44 -11 85 -16 90 -6 6 -7 3 -2 -10 4 -11 4 -17 0
-14 -9 9 -13 32 -21 135 -4 49 -9 100 -11 114 -3 14 -5 49 -5 79 0 37 -3 50
-10 40 -5 -8 -9 -9 -9 -3 0 5 6 16 13 23 9 11 9 13 0 7 -9 -5 -13 2 -13 26 0
18 -3 57 -6 86 -5 43 -4 52 9 52 9 0 22 -7 31 -15 8 -8 29 -18 45 -21 17 -4
28 -10 26 -15 -5 -7 11 -22 25 -24 33 -5 70 -19 70 -26 0 -5 8 -9 18 -9 9 0
30 -7 46 -15 15 -8 37 -15 48 -15 10 0 17 -4 14 -8 -3 -5 26 -14 64 -21 38 -7
70 -16 72 -21 3 -8 77 -22 110 -22 11 1 15 -5 11 -14 -3 -9 2 -14 18 -15 13
-1 33 -3 44 -4 11 -2 48 -7 82 -11 34 -4 60 -11 57 -15 -3 -5 15 -10 40 -10
25 -1 49 -2 54 -3 4 -2 47 -6 97 -11 53 -4 95 -13 103 -22 16 -15 38 -12 35 6
-2 6 2 11 8 11 6 0 9 -7 5 -15 -4 -12 4 -15 37 -16 23 0 60 -2 82 -4 79 -6
401 -18 438 -17 25 1 36 -2 31 -9 -4 -8 -1 -8 12 -1 24 12 111 13 92 1 -9 -6
-6 -8 9 -6 12 2 26 6 29 10 4 4 14 7 23 7 14 0 14 -2 1 -10 -9 -6 -10 -10 -3
-10 6 0 15 5 18 10 3 6 11 10 16 10 6 0 7 -4 4 -10 -3 -5 -1 -10 4 -10 6 0 11
5 11 10 0 6 5 10 11 10 5 0 7 -6 3 -12 -5 -8 -1 -8 10 1 14 12 21 13 38 2 11
-7 18 -8 14 -3 -3 5 8 9 24 9 18 0 27 -4 23 -11 -4 -7 -1 -7 8 1 8 6 57 12
119 13 119 1 216 5 445 15 88 5 169 8 180 7 15 -1 16 1 6 8 -8 4 -20 6 -28 3
-7 -3 -13 -1 -13 4 0 6 31 11 69 12 38 1 80 4 93 6 12 2 64 6 113 10 50 4 96
12 104 18 12 9 13 9 7 0 -4 -7 -2 -13 3 -13 6 0 11 5 11 10 0 6 5 10 11 10 5
0 7 -6 3 -12 -6 -10 -5 -10 7 -2 8 7 46 15 84 18 125 12 160 18 174 29 15 12
20 13 111 23 36 3 70 10 75 14 6 4 37 11 70 14 84 8 128 17 144 30 11 8 13 8
7 -1 -4 -8 -1 -13 9 -13 9 0 14 4 11 8 -5 9 57 28 115 36 19 3 60 12 91 20 30
8 81 17 112 21 36 5 56 12 56 20 0 9 20 16 55 20 30 4 55 10 55 14 0 4 36 14
80 21 43 7 77 17 74 22 -3 4 6 8 20 8 13 0 26 4 28 9 3 10 42 19 86 20 13 1
21 5 17 10 -3 6 15 13 40 16 25 4 45 11 45 16 0 4 20 11 45 15 25 3 45 9 45
13 0 9 48 28 105 42 28 6 58 20 68 31 12 14 17 16 18 7 0 -10 2 -10 6 -2 2 7
20 15 39 19 18 3 32 10 29 14 -3 5 13 11 35 15 22 4 40 10 40 15 0 4 11 11 25
14 14 4 25 11 25 16 0 6 5 10 11 10 5 0 8 -4 5 -9 -4 -5 5 -4 18 2 15 7 20 14
13 19 -6 3 7 10 29 14 21 4 50 15 63 25 13 11 31 19 40 19 9 0 29 11 45 25 16
14 38 25 48 25 11 0 16 5 13 10 -3 6 -1 11 4 11 6 1 15 2 20 3 5 0 19 12 30
25 13 15 21 19 21 10 0 -8 3 -10 8 -4 11 16 70 55 82 55 6 0 13 7 16 15 4 8
12 15 19 15 7 0 15 7 19 15 3 8 14 15 25 15 11 0 21 4 23 9 2 5 19 19 38 31
19 12 27 19 17 16 -11 -3 -16 -2 -12 4 3 6 13 10 20 10 17 0 75 55 75 70 0 6
4 9 9 6 5 -3 12 1 15 10 3 8 10 13 15 10 5 -3 11 4 14 16 7 27 14 22 19 -14z
m-6332 -354 c0 -23 4 -33 11 -28 7 4 7 -1 -1 -16 -8 -15 -8 -20 -1 -16 7 5 11
-7 12 -36 0 -24 2 -60 5 -80 3 -32 1 -38 -16 -38 -10 0 -22 -4 -25 -10 -3 -5
-16 -9 -28 -8 -38 2 -142 -22 -146 -33 -2 -7 -6 -6 -12 2 -6 10 -9 11 -9 2 0
-7 -9 -13 -20 -13 -11 0 -20 -4 -20 -9 0 -5 -16 -12 -35 -15 -19 -4 -35 -11
-35 -16 0 -4 -14 -11 -30 -15 -17 -4 -28 -11 -24 -16 5 -8 -17 -14 -39 -10 -4
1 -10 -6 -13 -14 -4 -8 -12 -15 -20 -15 -8 0 -14 -4 -14 -10 0 -5 -11 -12 -25
-16 -14 -3 -30 -15 -36 -25 -5 -11 -14 -17 -20 -14 -5 4 -9 -1 -9 -9 0 -8 -10
-20 -22 -27 -26 -13 -88 -78 -88 -91 0 -5 -4 -7 -9 -3 -9 5 -51 -40 -51 -56 0
-4 -13 -21 -30 -37 -16 -17 -30 -40 -30 -51 0 -12 -3 -21 -7 -21 -8 0 -41 -53
-44 -68 0 -4 -6 -13 -12 -21 -6 -7 -12 -20 -13 -29 -2 -8 -7 -18 -12 -21 -5
-3 -11 -15 -13 -25 -3 -17 -12 -11 -54 32 -28 29 -56 52 -62 52 -7 0 -13 6
-13 13 0 8 -16 28 -35 46 -19 17 -35 29 -35 25 0 -3 -14 8 -31 25 -29 30 -125
79 -142 73 -5 -1 -6 2 -3 6 6 10 -73 35 -163 52 -90 17 -132 30 -126 40 4 6 2
10 -3 10 -10 0 -31 37 -36 66 -4 19 5 25 78 48 45 14 103 29 129 32 32 5 44
10 35 15 -7 5 -8 9 -3 9 6 0 17 -6 24 -12 11 -10 13 -10 7 0 -5 9 4 12 33 13
23 1 44 2 49 3 4 1 34 6 67 10 60 8 80 11 125 21 14 3 36 7 50 10 14 3 36 7
50 10 14 3 36 7 49 10 14 2 27 9 30 14 3 4 22 12 41 16 19 4 62 17 95 27 33
11 65 21 70 22 6 1 22 10 37 20 15 10 33 19 40 20 22 3 112 39 122 48 6 4 19
8 30 8 10 0 16 3 12 7 -7 7 61 36 159 68 33 11 63 23 66 28 5 6 156 53 182 56
4 1 7 -15 7 -35z m74 -511 c3 -16 7 -45 8 -65 1 -21 6 -38 10 -38 4 0 8 -5 8
-11 0 -5 -5 -7 -11 -3 -8 5 -8 1 0 -13 11 -21 18 -89 11 -97 -3 -2 -27 -7 -55
-10 -27 -4 -61 -10 -75 -13 -29 -6 -110 -43 -110 -49 0 -3 5 -2 10 1 6 3 10 4
10 1 0 -4 -18 -13 -40 -22 -22 -9 -37 -20 -35 -25 3 -4 -9 -12 -27 -17 -18 -4
-33 -15 -33 -23 0 -8 -12 -22 -28 -33 -15 -10 -30 -29 -33 -42 -3 -13 -10 -24
-14 -24 -4 0 -13 -13 -20 -30 -7 -16 -16 -30 -21 -30 -5 0 -6 -6 -3 -13 3 -8
-2 -20 -11 -27 -8 -7 -15 -21 -15 -31 0 -11 -6 -19 -12 -19 -9 0 -8 -4 2 -10
8 -5 10 -10 3 -10 -6 0 -10 -8 -9 -17 2 -10 -1 -36 -6 -58 -33 -141 -28 -427
8 -499 8 -16 14 -33 14 -39 0 -5 8 -17 18 -26 11 -9 22 -28 25 -42 4 -14 16
-36 27 -49 11 -13 20 -27 20 -32 0 -4 24 -31 53 -58 28 -27 59 -57 68 -65 9
-8 20 -15 26 -15 6 0 13 -7 17 -15 3 -8 15 -15 26 -15 12 0 18 -4 15 -10 -3
-5 1 -10 10 -10 9 0 14 -4 11 -9 -3 -5 17 -14 44 -21 27 -7 48 -16 45 -20 -3
-5 10 -12 30 -16 19 -3 38 -10 41 -15 3 -5 14 -9 25 -9 11 0 18 -4 15 -9 -3
-5 16 -12 44 -16 34 -5 48 -11 43 -18 -4 -7 2 -5 12 3 11 9 16 10 11 3 -5 -9
-1 -13 11 -13 43 -1 159 -12 173 -17 25 -9 49 -10 44 -1 -6 10 10 11 20 1 10
-11 37 -12 30 -2 -3 5 21 9 55 9 58 0 67 -5 62 -33 -1 -5 7 -11 18 -14 11 -3
26 -21 34 -41 17 -41 51 -82 70 -82 7 0 6 -4 -3 -10 -13 -8 -12 -10 4 -10 11
0 16 -3 13 -7 -4 -3 -2 -12 4 -20 9 -10 7 -13 -10 -13 -11 0 -21 -6 -22 -12 0
-9 -2 -9 -6 1 -4 9 -8 10 -12 2 -4 -6 -34 -14 -67 -18 -128 -14 -446 -2 -452
18 -2 5 -13 9 -25 9 -36 0 -137 24 -137 32 0 4 -9 8 -20 8 -11 0 -20 4 -20 9
0 5 -17 12 -37 16 -21 4 -41 12 -45 18 -3 6 -16 12 -28 14 -31 5 -61 23 -55
32 4 8 -31 24 -47 22 -5 -1 -8 3 -8 8 0 5 -15 14 -32 21 -31 12 -55 31 -96 73
-9 9 -22 17 -29 17 -7 0 -20 11 -28 24 -9 13 -31 31 -48 40 -35 16 -86 56 -72
56 5 0 -9 17 -31 39 -61 60 -106 130 -131 206 -13 39 -27 77 -30 85 -7 18 -9
30 -20 100 -9 65 -9 126 2 235 4 44 8 85 8 92 0 7 4 10 8 8 6 -4 14 31 23 106
1 14 5 30 8 35 3 5 8 26 12 46 4 20 13 49 21 64 8 15 11 32 8 37 -3 6 -1 7 5
3 8 -5 12 0 12 13 0 11 7 27 16 35 9 10 11 16 4 16 -7 0 -5 7 4 16 9 8 14 19
11 24 -3 5 -1 11 5 15 5 3 10 14 10 23 0 10 9 24 19 32 11 7 18 17 15 21 -2 5
5 13 16 19 11 6 20 17 20 26 0 8 14 28 30 44 17 16 30 32 30 36 0 11 44 45 78
60 17 8 32 21 32 28 0 8 9 18 20 21 11 3 20 11 20 16 0 5 7 9 15 9 17 0 56 20
66 33 3 5 12 10 20 11 17 4 67 23 94 37 20 10 90 22 152 27 27 2 32 -1 37 -25z
m1366 -213 c0 -5 -2 -10 -4 -10 -3 0 -8 5 -11 10 -3 6 -1 10 4 10 6 0 11 -4
11 -10z m-1288 -319 c0 -20 2 -40 3 -46 1 -5 5 -44 9 -85 5 -41 12 -77 17 -80
5 -3 11 -24 13 -45 3 -22 7 -49 10 -60 2 -11 5 -33 5 -48 1 -16 5 -26 11 -22
15 9 24 -19 29 -88 0 -10 5 -16 9 -13 5 3 15 -26 21 -64 7 -38 18 -68 23 -67
6 1 19 -27 29 -63 9 -36 18 -60 19 -55 1 6 9 -17 19 -50 10 -34 22 -59 29 -58
7 2 12 -3 12 -10 0 -7 9 -29 20 -50 11 -20 20 -41 20 -47 0 -12 -113 -14 -124
-2 -4 4 -11 7 -14 7 -74 6 -183 42 -197 65 -3 5 -15 10 -26 10 -11 0 -17 5
-14 10 3 6 -2 10 -13 10 -10 0 -29 9 -42 20 -13 11 -27 20 -32 20 -5 0 -7 3
-5 8 3 4 -1 13 -9 20 -11 10 -14 10 -14 0 -1 -7 -6 -3 -13 10 -7 12 -16 20
-20 16 -4 -4 -12 7 -18 24 -6 18 -15 32 -20 32 -5 0 -9 7 -9 15 0 8 -4 15 -8
15 -12 0 -41 70 -51 126 -17 84 -1 371 19 359 4 -3 11 11 14 30 4 20 11 33 17
30 5 -4 9 3 9 14 0 12 5 21 10 21 6 0 15 11 20 25 5 14 15 24 22 23 7 -2 13 4
12 13 -1 10 14 20 42 28 24 7 44 17 44 21 0 11 35 18 83 17 35 -1 37 -2 39
-36z m7773 -33 c-3 -34 -11 -69 -18 -77 -10 -12 -9 -13 3 -6 12 7 13 6 4 -6
-6 -8 -15 -32 -18 -54 -4 -22 -12 -53 -17 -70 -47 -146 -58 -179 -59 -170 -1
6 -17 -33 -36 -85 -19 -52 -39 -97 -44 -100 -4 -3 -10 -12 -12 -20 -5 -22 -24
-39 -62 -55 -46 -19 -49 -19 -41 6 8 25 13 49 14 67 1 7 5 11 9 8 8 -5 72 197
72 228 0 8 6 21 13 28 11 11 55 145 73 221 3 15 9 27 13 27 4 0 13 17 20 38
13 38 55 82 79 82 10 0 11 -15 7 -62z m-8503 -1330 c17 -16 38 -28 46 -28 8 0
12 -3 9 -6 -9 -10 44 -54 64 -54 9 0 19 -7 23 -15 3 -8 12 -15 21 -15 8 0 15
-7 15 -15 0 -8 5 -16 10 -16 32 -4 60 -20 54 -30 -3 -5 -2 -8 3 -7 17 5 83
-24 83 -36 0 -7 6 -13 13 -14 24 -2 47 -8 53 -15 4 -4 16 -7 26 -7 10 0 18 -4
18 -9 0 -5 15 -12 33 -16 17 -4 35 -9 40 -10 4 -1 10 -3 15 -4 4 -1 0 -6 -8
-11 -12 -7 -8 -10 15 -11 25 0 27 -2 10 -8 -11 -5 -20 -14 -20 -22 -1 -8 -6
-13 -12 -12 -6 1 -17 -17 -24 -42 -7 -24 -17 -41 -21 -39 -4 3 -8 -2 -8 -11 0
-9 -5 -13 -11 -10 -6 4 -9 1 -8 -6 3 -24 -13 -79 -22 -73 -5 3 -9 -3 -10 -13
0 -10 -3 -38 -7 -63 -8 -54 -8 -199 1 -255 3 -22 6 -49 6 -60 1 -15 3 -17 10
-6 6 10 11 2 16 -27 3 -22 15 -49 26 -61 19 -20 43 -69 41 -82 -1 -3 10 -12
24 -20 14 -7 33 -26 41 -43 16 -30 60 -76 74 -76 4 0 11 -10 14 -21 6 -17 9
-19 16 -8 7 11 9 10 9 -3 0 -10 11 -20 25 -24 14 -4 24 -9 21 -11 -7 -7 20
-33 34 -33 6 0 13 -6 16 -14 3 -8 16 -17 30 -20 13 -4 24 -11 24 -16 0 -6 7
-10 15 -10 7 0 19 -8 24 -17 6 -10 11 -15 11 -11 0 4 16 -4 36 -17 20 -14 45
-25 55 -25 11 0 19 -4 19 -9 0 -5 30 -24 68 -42 37 -18 69 -36 72 -40 3 -4 22
-10 43 -14 20 -4 37 -11 37 -16 0 -5 12 -9 28 -9 19 0 23 -3 13 -9 -9 -6 -5
-10 15 -14 16 -3 38 -8 49 -10 11 -3 28 -6 38 -6 31 -2 8 -21 -33 -27 -22 -4
-38 -9 -36 -13 5 -8 -197 -52 -304 -67 -25 -3 -50 -10 -56 -15 -18 -15 -68
-20 -219 -23 -114 -2 -319 15 -280 24 6 1 -24 10 -65 21 -100 26 -161 50 -154
60 3 5 -2 9 -10 9 -23 0 -156 71 -151 80 3 5 -3 11 -14 15 -23 7 -82 52 -138
105 -23 22 -46 40 -53 40 -6 0 -9 4 -6 8 3 5 -10 24 -29 42 -19 19 -35 37 -35
41 0 5 -11 20 -25 35 -13 14 -34 47 -47 73 -12 25 -27 51 -34 58 -18 19 -54
164 -54 222 0 58 27 189 42 209 6 6 7 12 2 12 -4 0 2 10 13 23 19 19 59 112
78 175 3 12 10 22 14 22 4 0 25 45 46 100 21 55 41 98 43 95 6 -6 57 160 67
218 4 20 11 35 16 31 5 -3 10 4 10 15 1 12 2 24 3 29 1 4 6 25 10 47 5 22 11
33 13 25 3 -8 19 -27 35 -42z m6610 -139 c10 -10 34 -21 53 -25 19 -3 35 -10
35 -14 0 -7 12 -11 63 -25 4 -2 12 -3 17 -4 6 0 10 -8 10 -16 0 -8 17 -19 40
-26 22 -7 40 -16 40 -20 0 -4 9 -11 20 -14 11 -3 20 -12 20 -19 0 -7 18 -19
40 -26 21 -7 38 -18 37 -24 -1 -6 8 -12 21 -14 13 -2 26 -11 29 -19 7 -19 62
-73 74 -73 5 0 9 -6 9 -12 0 -7 14 -26 30 -42 17 -16 30 -33 30 -38 0 -5 5 -6
10 -3 6 3 10 1 10 -4 0 -6 -6 -11 -12 -11 -9 0 -8 -3 2 -10 8 -5 16 -14 16
-20 1 -5 2 -15 3 -21 0 -5 6 -7 11 -4 6 3 10 -4 11 -17 0 -13 2 -42 5 -65 6
-45 -12 -87 -60 -137 -12 -13 -42 -48 -69 -78 -72 -84 -257 -264 -257 -251 0
2 -12 -8 -27 -22 -16 -15 -45 -35 -65 -46 -20 -10 -39 -23 -43 -28 -3 -5 -18
-16 -33 -24 -68 -35 -81 -44 -77 -49 5 -5 -45 -18 -61 -17 -4 0 -10 -4 -14
-11 -7 -11 -27 -17 -58 -19 -7 -1 -11 -5 -8 -9 3 -5 0 -9 -7 -10 -48 -5 -71
-12 -77 -22 -4 -7 -19 -13 -33 -13 -14 -1 -23 -5 -21 -9 2 -3 -15 -10 -38 -14
-24 -4 -46 -9 -50 -10 -5 -1 -15 -2 -24 -3 -8 0 -13 -5 -10 -9 2 -4 -4 -8 -14
-9 -10 -1 -39 -9 -64 -17 -26 -9 -55 -16 -66 -16 -10 0 -21 -4 -24 -9 -3 -5
-31 -12 -61 -16 -30 -3 -53 -10 -50 -15 3 -4 -24 -11 -60 -15 -36 -3 -67 -11
-70 -16 -4 -5 -19 -9 -36 -9 -16 0 -29 -5 -29 -12 0 -9 -4 -8 -10 2 -6 9 -10
10 -10 3 0 -7 -27 -15 -67 -19 -38 -4 -71 -9 -75 -10 -5 -1 -22 -2 -39 -3 -16
0 -28 -5 -25 -9 3 -5 0 -9 -7 -9 -7 0 -50 -3 -97 -8 -47 -4 -90 -7 -97 -8 -6
0 -9 -6 -7 -12 3 -6 -1 -12 -8 -12 -12 0 -152 -13 -208 -18 -14 -2 -47 -3 -73
-4 -27 -1 -46 -5 -43 -10 7 -10 -20 -9 -30 2 -4 4 -12 7 -18 7 -6 0 -4 -5 4
-10 12 -8 10 -10 -10 -9 -22 1 -209 -10 -265 -15 -11 -1 -27 -6 -34 -11 -10
-5 -12 -4 -7 3 4 7 2 12 -3 12 -6 0 -11 -4 -11 -10 0 -5 -5 -10 -11 -10 -5 0
-8 4 -5 8 3 5 -1 9 -9 9 -8 0 -12 -4 -9 -8 2 -4 -4 -8 -13 -7 -89 2 -182 -6
-176 -16 3 -6 0 -6 -8 2 -14 13 -63 17 -55 4 2 -4 -6 -8 -19 -8 -13 0 -22 3
-19 7 5 9 -23 5 -32 -4 -12 -12 -26 -8 -18 5 5 7 3 8 -7 2 -19 -12 -33 -12
-41 1 -5 6 -8 5 -8 -4 0 -11 -3 -11 -17 0 -9 8 -14 9 -10 3 5 -9 -51 -12 -218
-11 -124 1 -225 5 -225 9 0 5 -5 8 -11 8 -5 0 -7 -4 -4 -10 3 -5 2 -10 -4 -10
-5 0 -13 4 -16 10 -7 11 -33 9 -52 -3 -8 -5 -13 -4 -13 2 0 6 -3 10 -7 10 -33
-5 -243 3 -239 9 2 4 -4 8 -14 8 -10 0 -17 -3 -14 -7 5 -8 -16 -6 -31 3 -5 3
-82 9 -170 13 -88 4 -161 11 -163 16 -2 5 -8 9 -13 9 -6 0 -8 -4 -5 -8 3 -5
-1 -9 -9 -9 -8 0 -12 4 -9 9 3 4 -19 9 -48 9 -29 1 -64 3 -78 5 -58 7 -118 12
-159 13 -32 1 -42 4 -38 15 3 7 0 13 -6 13 -7 -1 -49 3 -94 7 -57 6 -80 12
-76 20 4 6 -2 4 -12 -4 -10 -8 -16 -10 -12 -4 4 8 -13 13 -51 17 -31 4 -84 9
-117 13 -33 3 -64 10 -70 15 -5 5 -17 9 -28 9 -10 0 -15 5 -12 10 4 6 3 10 -2
8 -16 -4 -138 14 -148 22 -11 9 -54 18 -93 19 -13 1 -20 6 -17 11 3 6 -4 10
-17 11 -38 1 -72 9 -82 19 -6 6 -21 10 -34 10 -16 0 -21 4 -16 13 5 7 0 6 -11
-3 -10 -8 -16 -10 -12 -4 5 8 -15 16 -61 24 -37 7 -78 21 -92 31 -14 10 -41
21 -60 24 -19 3 -36 10 -38 16 -2 5 -11 9 -20 9 -10 0 -34 9 -55 20 -20 11
-39 20 -42 19 -10 -1 -65 26 -65 32 0 3 -22 11 -50 19 -27 7 -47 17 -44 22 3
4 -4 8 -15 8 -12 0 -21 3 -21 8 0 8 -26 23 -72 42 -16 7 -28 16 -28 20 0 4
-12 11 -26 14 -30 8 -56 30 -47 40 4 3 -1 6 -9 6 -9 0 -22 7 -29 16 -7 9 -23
20 -36 25 -13 5 -23 15 -23 23 0 7 -13 19 -29 25 -15 7 -34 23 -41 37 -8 13
-17 24 -20 24 -4 0 -13 14 -20 31 -8 18 -18 28 -26 25 -8 -3 -15 1 -15 9 -2
23 -4 28 -22 65 -20 41 -28 107 -20 168 4 29 9 39 14 30 6 -9 9 -5 8 12 -1 31
5 57 14 66 4 4 7 16 7 27 0 13 5 17 15 13 9 -3 15 0 15 9 0 8 9 24 20 35 11
11 22 31 26 45 3 14 14 25 23 25 20 1 51 24 51 39 0 8 24 10 79 9 44 -2 74 -6
68 -10 -6 -4 -8 -10 -4 -14 4 -4 13 -2 19 4 7 7 19 12 28 11 10 0 9 -3 -5 -9
-13 -5 -1 -7 38 -7 31 1 57 5 57 10 0 4 -4 6 -8 3 -4 -2 -13 -1 -20 3 -6 3 10
7 37 7 95 2 287 27 261 35 -24 7 -24 7 5 8 17 1 52 7 80 14 41 11 54 11 76 0
15 -7 30 -20 33 -28 3 -8 12 -15 21 -15 8 0 15 -8 15 -18 0 -12 13 -23 35 -32
19 -7 32 -17 30 -21 -3 -4 2 -10 11 -13 8 -3 13 -10 9 -16 -3 -5 8 -16 25 -25
16 -8 30 -19 30 -23 0 -5 16 -14 35 -22 19 -8 35 -19 35 -25 0 -23 90 -80 106
-67 5 4 2 -2 -6 -12 -8 -11 -10 -17 -4 -13 7 4 17 0 24 -8 7 -8 19 -15 27 -15
8 0 12 -4 9 -9 -4 -5 7 -12 23 -16 33 -7 63 -34 40 -36 -8 0 1 -5 20 -11 19
-5 46 -18 59 -29 14 -10 31 -19 38 -19 8 0 14 -6 14 -13 0 -8 18 -20 40 -27
22 -7 40 -17 40 -21 0 -4 22 -13 49 -20 35 -9 48 -16 44 -26 -3 -8 -2 -13 3
-11 5 1 31 -8 59 -21 27 -13 54 -24 60 -25 5 -1 20 -7 32 -14 12 -7 27 -12 33
-12 6 0 18 -7 26 -15 9 -8 29 -15 45 -15 17 0 28 -4 25 -9 -3 -5 23 -14 59
-21 40 -8 65 -17 65 -25 0 -8 19 -16 50 -20 34 -5 48 -11 43 -18 -4 -7 2 -5
12 3 10 8 16 10 12 4 -4 -7 18 -15 65 -23 40 -7 79 -17 87 -24 8 -7 12 -7 8
-1 -3 6 0 11 8 11 8 0 12 -4 9 -9 -3 -4 10 -8 28 -8 25 0 29 -3 18 -10 -9 -6
-10 -10 -3 -10 6 0 15 5 18 10 5 7 11 8 19 1 13 -11 55 -19 109 -20 28 -1 36
-4 31 -13 -6 -10 -4 -10 8 0 9 7 18 9 20 4 3 -10 147 -21 293 -23 46 -1 83 -6
87 -13 5 -7 8 -7 8 3 0 11 3 11 17 0 9 -8 14 -9 10 -3 -4 7 23 11 86 12 152 2
312 13 315 23 2 5 8 9 13 9 6 0 7 -6 3 -12 -6 -10 -4 -10 7 -2 8 6 21 11 29
11 8 0 47 4 85 8 39 5 84 9 102 9 17 1 29 4 26 9 -2 4 16 7 41 7 25 0 48 5 51
10 3 6 13 10 21 10 10 0 12 -5 8 -12 -6 -10 -5 -10 7 -1 8 7 51 15 94 19 44 3
91 8 105 10 14 1 38 3 53 3 16 1 26 5 22 11 -4 6 10 11 34 11 23 1 46 3 51 4
6 1 24 3 41 4 24 1 30 5 25 17 -3 8 -2 13 2 10 4 -2 33 2 65 9 71 16 62 15 95
15 19 0 23 3 13 9 -8 6 6 11 43 15 31 4 54 12 51 17 -4 5 8 9 25 9 17 0 29 4
26 8 -3 5 19 15 50 21 30 7 67 19 82 27 15 8 35 14 45 14 10 0 16 4 12 9 -9
15 13 24 87 38 15 3 26 9 23 13 -3 4 15 14 39 21 25 7 44 18 43 23 -1 6 3 11
8 11 16 2 69 24 85 35 8 6 22 13 32 16 9 3 18 15 21 25 3 11 9 19 14 17 14 -3
53 13 53 22 0 5 18 14 40 20 24 6 37 15 35 23 -5 12 37 37 61 37 6 0 14 7 18
15 3 8 12 15 21 15 8 0 15 5 15 11 0 5 -6 7 -12 4 -7 -4 -4 1 6 9 11 9 24 16
29 16 16 0 77 52 77 66 0 8 3 13 8 12 14 -3 47 16 60 34 7 10 21 18 31 18 12
0 18 7 17 17 0 9 9 22 21 28 13 7 20 14 17 18 -3 3 3 10 14 16 11 6 22 8 25 4
3 -3 9 6 13 21 3 14 9 24 14 21 4 -2 13 6 20 20 7 13 18 21 26 18 8 -3 15 0
15 6 1 6 2 15 3 21 2 13 26 36 26 25 0 -6 6 1 13 15 8 14 19 24 26 22 6 -1 16
9 21 24 9 23 14 25 43 19 17 -4 40 -16 49 -26z m-5647 -7 c-3 -3 -11 0 -18 7
-9 10 -8 11 6 5 10 -3 15 -9 12 -12z m135 8 c0 -7 -66 -7 -74 0 -2 3 13 6 35
6 21 1 39 -2 39 -6z m2074 -768 c3 -5 -1 -9 -9 -9 -8 0 -12 4 -9 9 3 4 7 8 9
8 2 0 6 -4 9 -8z"/>
<path d="M8675 11800 c-3 -5 -1 -10 4 -10 6 0 11 5 11 10 0 6 -2 10 -4 10 -3
0 -8 -4 -11 -10z"/>
<path d="M8386 11718 c3 -4 9 -8 15 -8 5 0 9 4 9 8 0 5 -7 9 -15 9 -8 0 -12
-4 -9 -9z"/>
<path d="M9935 10659 c-3 -4 2 -6 10 -5 21 3 28 13 10 13 -9 0 -18 -4 -20 -8z"/>
<path d="M6535 10380 c-3 -5 -1 -10 4 -10 6 0 11 5 11 10 0 6 -2 10 -4 10 -3
0 -8 -4 -11 -10z"/>
<path d="M6510 8498 c0 -4 7 -8 15 -8 8 0 15 4 15 8 0 5 -7 9 -15 9 -8 0 -15
-4 -15 -9z"/>
<path d="M6706 8499 c4 -8 30 -6 38 2 3 3 -5 5 -19 5 -13 0 -22 -3 -19 -7z"/>
<path d="M19275 13611 c-6 -5 -66 -12 -135 -15 -69 -4 -141 -9 -160 -11 -19
-2 -73 -6 -120 -10 -142 -11 -168 -15 -197 -27 -15 -6 -31 -12 -35 -12 -4 -1
-13 -8 -20 -17 -7 -9 -33 -29 -58 -45 -25 -15 -51 -35 -58 -46 -7 -10 -19 -18
-25 -18 -14 0 -142 -100 -209 -165 -26 -25 -50 -45 -52 -45 -5 0 -87 -82 -157
-157 -19 -21 -51 -58 -70 -83 -19 -25 -36 -47 -40 -50 -11 -10 -64 -83 -61
-84 2 -1 -2 -13 -9 -28 -6 -15 -15 -26 -19 -23 -3 2 -21 -29 -40 -68 -18 -40
-37 -75 -42 -78 -8 -5 -30 -59 -65 -159 -8 -25 -18 -47 -22 -50 -4 -3 -22 -52
-41 -110 -19 -58 -38 -107 -41 -110 -4 -3 -24 -64 -45 -137 -21 -72 -41 -130
-44 -128 -3 2 -23 -52 -45 -118 -21 -67 -42 -124 -46 -127 -3 -3 -14 -23 -23
-45 -10 -22 -24 -53 -32 -68 -8 -16 -14 -35 -14 -43 0 -8 -4 -14 -9 -14 -8 0
-34 -52 -37 -78 -4 -26 -35 -62 -54 -62 -10 0 -25 -7 -34 -15 -35 -35 -133
-49 -361 -50 -121 -1 -238 -2 -261 -3 l-40 -2 -40 -117 c-21 -65 -42 -120 -45
-123 -8 -7 -36 -104 -44 -155 -6 -40 -7 -173 -1 -209 1 -11 8 -22 14 -24 7 -2
10 -7 8 -11 -3 -4 5 -7 17 -8 12 0 38 -3 57 -7 191 -36 365 -66 387 -66 21 0
24 -3 14 -9 -11 -7 -7 -10 15 -13 29 -3 29 -3 26 -63 -2 -33 -10 -85 -19 -115
-18 -66 -18 -66 -28 -108 -4 -18 -10 -30 -13 -27 -3 3 -21 -45 -38 -106 -18
-61 -37 -116 -42 -122 -6 -7 -27 -66 -48 -132 -20 -66 -40 -122 -44 -125 -4
-3 -24 -57 -45 -120 -22 -63 -42 -117 -45 -120 -4 -3 -21 -48 -39 -100 -18
-52 -36 -97 -40 -100 -4 -3 -25 -53 -46 -112 -22 -59 -41 -105 -44 -103 -2 3
-12 -17 -22 -45 -10 -27 -25 -64 -33 -81 -9 -18 -16 -38 -16 -45 0 -7 -4 -14
-9 -16 -5 -1 -25 -43 -46 -93 -20 -49 -41 -92 -45 -95 -5 -3 -25 -43 -45 -90
-21 -47 -41 -87 -45 -90 -5 -3 -24 -40 -42 -83 -19 -42 -37 -74 -40 -71 -4 3
-20 -24 -37 -60 -18 -36 -38 -71 -45 -79 -8 -8 -29 -38 -47 -68 -18 -30 -45
-67 -61 -83 -15 -17 -28 -34 -28 -39 0 -5 -17 -28 -37 -51 -21 -23 -49 -55
-63 -73 -13 -17 -28 -30 -31 -27 -4 2 -10 -4 -13 -14 -7 -22 -107 -118 -161
-155 -22 -15 -36 -27 -31 -27 5 0 -3 -9 -17 -20 -14 -11 -28 -20 -32 -20 -4 0
-26 -15 -48 -32 -23 -18 -44 -33 -47 -33 -9 -1 -104 -65 -96 -65 5 0 3 -7 -4
-15 -40 -48 -14 -155 49 -200 l42 -29 202 0 c199 -1 286 5 383 23 74 15 159
38 180 50 11 6 57 26 104 45 47 20 81 36 75 36 -5 0 21 16 58 34 37 18 78 42
90 54 12 11 36 27 52 35 17 8 39 24 50 34 11 10 43 36 70 58 28 21 57 47 66
57 9 10 33 32 54 48 21 17 35 30 31 30 -3 0 10 16 30 35 19 19 41 35 47 35 5
0 7 3 4 7 -4 3 12 25 36 49 24 23 55 57 69 76 15 18 47 56 72 83 25 28 46 54
46 58 0 4 16 21 35 38 19 17 35 36 35 41 0 10 40 58 118 145 16 18 28 34 26
36 -2 1 15 23 38 47 22 25 56 67 75 95 19 27 38 52 42 55 5 3 23 32 41 65 18
33 38 67 45 75 7 8 27 44 44 79 17 36 35 67 39 70 7 6 34 71 68 166 10 28 21
52 24 55 7 6 62 145 61 157 0 4 6 15 13 23 11 13 27 44 30 60 7 31 61 160 66
160 4 0 10 10 13 23 3 12 15 47 27 77 12 30 26 70 31 88 6 17 14 32 18 32 5 0
23 41 41 90 18 50 36 90 41 90 4 0 11 10 14 23 10 35 61 156 94 224 17 34 33
74 37 88 3 14 10 28 15 31 5 3 9 16 9 30 0 14 4 23 9 20 7 -5 34 43 36 64 2
11 44 84 45 76 0 -5 10 11 23 35 19 36 29 45 55 47 22 2 30 7 25 15 -4 7 2 5
12 -3 10 -8 16 -10 12 -4 -5 8 12 14 50 19 32 4 64 8 73 10 8 1 37 6 63 9 27
4 57 9 66 11 10 2 40 6 67 10 27 3 58 7 69 9 11 2 48 7 83 11 34 4 62 11 62
16 0 5 12 9 26 9 14 0 50 7 79 15 75 22 126 79 147 165 17 67 33 162 29 169
-2 2 3 7 9 11 8 5 14 46 16 114 4 93 2 107 -13 113 -9 4 -24 14 -33 23 -25 25
-93 33 -280 34 -169 1 -212 9 -253 47 -14 12 -17 26 -13 55 8 68 45 197 71
249 26 53 48 105 49 117 1 4 9 16 18 27 10 11 26 37 37 58 10 21 30 50 42 64
13 14 29 33 34 41 39 58 55 77 92 111 23 21 45 47 48 58 4 11 10 17 14 15 4
-3 27 14 51 36 68 63 97 71 221 63 124 -8 179 3 221 45 15 16 28 25 28 22 0
-4 14 9 30 28 16 19 30 40 30 47 0 6 9 18 20 26 11 7 33 46 51 87 17 40 37 80
45 87 8 8 17 26 21 41 3 15 28 72 54 128 27 55 58 127 70 158 11 32 23 55 26
52 3 -3 19 23 36 57 17 34 43 75 59 91 15 17 28 34 28 38 0 16 43 67 52 62 8
-5 11 10 11 61 0 84 2 80 -75 110 -40 16 -75 32 -78 36 -3 4 -50 23 -105 42
-55 20 -95 36 -90 37 6 1 -26 12 -70 26 -84 25 -108 31 -165 39 -19 3 -46 7
-60 10 -14 2 -45 4 -70 4 -33 1 -41 4 -30 11 9 6 10 10 3 10 -6 0 -15 -5 -18
-10 -4 -6 -12 -7 -18 -3 -17 10 -117 11 -123 1 -3 -4 -10 -8 -15 -8 -6 0 -7 5
-4 10 8 12 2 13 -10 1z m-207 -495 c90 -10 102 -15 102 -45 0 -23 -19 -69 -20
-48 0 5 -12 0 -27 -11 -17 -11 -55 -22 -93 -26 -71 -8 -133 -21 -195 -42 -61
-20 -206 -98 -243 -130 -60 -52 -232 -231 -232 -241 0 -3 -14 -23 -31 -44 -17
-21 -27 -39 -23 -39 4 0 -5 -11 -20 -25 -15 -14 -33 -40 -41 -59 -8 -18 -26
-48 -41 -65 -14 -17 -23 -31 -19 -31 4 0 -4 -15 -19 -34 -14 -19 -26 -39 -26
-45 0 -5 -13 -25 -30 -43 -16 -18 -30 -37 -30 -43 0 -6 -16 -30 -35 -52 -19
-23 -35 -44 -35 -46 0 -11 -66 -112 -80 -124 -31 -25 -96 -53 -117 -51 -26 3
-24 24 9 71 11 15 16 27 12 27 -4 0 2 9 14 20 12 12 33 43 47 69 13 27 31 55
38 63 8 8 30 41 48 74 18 32 42 69 53 81 12 12 21 26 22 30 1 15 46 83 55 83
5 0 9 4 9 10 0 10 57 91 89 125 10 11 31 43 46 72 15 29 32 50 36 47 5 -3 9 3
9 12 0 9 11 32 25 50 14 18 25 35 25 39 0 3 16 22 35 42 19 20 33 39 30 41 -6
6 75 82 88 82 4 0 6 4 3 8 -3 4 17 23 45 40 27 18 49 36 49 41 0 10 115 68
152 77 16 3 25 10 22 15 -3 5 1 9 8 10 7 0 22 3 33 5 40 10 141 20 170 18 17
-2 54 -5 83 -8z m-1844 -2868 c-11 -119 -45 -285 -61 -297 -5 -3 -21 -44 -37
-91 -15 -47 -35 -96 -44 -110 -9 -14 -17 -30 -18 -35 -4 -26 -51 -109 -64
-115 -8 -4 -25 -12 -37 -18 -38 -20 -41 -14 -23 41 9 28 23 75 30 104 8 29 17
50 21 47 4 -2 12 15 18 38 5 24 14 59 20 78 6 19 17 59 26 89 8 30 19 57 23
60 5 3 16 35 26 71 25 96 43 132 79 158 17 12 35 22 38 22 4 0 5 -19 3 -42z"/>
<path d="M8801 13264 c0 -11 3 -14 6 -6 3 7 2 16 -1 19 -3 4 -6 -2 -5 -13z"/>
<path d="M20695 11845 c-70 -15 -141 -43 -132 -51 3 -4 -25 -22 -64 -40 -39
-19 -77 -40 -85 -48 -8 -8 -42 -29 -77 -47 -34 -17 -64 -35 -67 -39 -3 -4 -31
-22 -62 -40 -32 -17 -58 -35 -58 -39 0 -4 -12 -13 -27 -20 -34 -15 -95 -55
-148 -97 -22 -18 -42 -32 -45 -31 -9 3 -50 -30 -45 -35 3 -3 -7 -12 -23 -19
-29 -14 -95 -67 -181 -146 -25 -23 -56 -51 -68 -61 -13 -11 -23 -24 -23 -31 0
-6 -4 -11 -9 -11 -5 0 -22 -14 -38 -31 -15 -17 -47 -49 -70 -72 -24 -23 -43
-46 -43 -50 0 -4 -18 -27 -40 -49 -22 -23 -40 -48 -40 -54 0 -7 -8 -19 -17
-26 -20 -15 -83 -114 -83 -130 0 -6 -3 -9 -6 -5 -6 6 -134 -245 -134 -263 0
-5 -15 -42 -34 -82 -18 -40 -46 -109 -61 -153 -16 -44 -32 -82 -35 -85 -12 -9
-78 -200 -79 -228 -1 -7 -5 -11 -9 -8 -4 2 -19 -30 -32 -72 -12 -42 -31 -92
-41 -109 -18 -32 -41 -104 -44 -133 0 -8 -5 -26 -9 -39 -13 -37 -16 -75 -21
-231 -2 -80 0 -172 6 -205 14 -83 48 -195 59 -195 6 0 10 -6 10 -13 0 -7 10
-30 21 -52 12 -22 21 -42 20 -45 -1 -3 9 -19 23 -37 15 -18 26 -37 26 -42 0
-18 50 -125 63 -136 11 -9 61 -110 62 -124 1 -14 29 -57 41 -64 8 -4 14 -12
14 -18 0 -14 51 -89 90 -132 19 -22 35 -43 35 -48 0 -5 20 -25 44 -44 24 -19
40 -35 36 -35 -4 0 -2 -7 5 -15 7 -8 15 -13 19 -11 4 3 25 -12 47 -32 46 -43
110 -86 140 -96 12 -4 31 -15 43 -25 11 -10 60 -31 108 -47 48 -15 90 -31 93
-35 3 -3 43 -13 90 -21 80 -15 389 -18 445 -5 11 3 49 8 85 12 36 4 67 11 70
15 3 4 27 11 55 14 65 9 269 57 275 65 3 3 52 22 110 40 58 19 117 43 132 53
14 10 31 18 37 18 14 0 130 56 150 73 9 7 42 27 73 43 32 16 58 32 58 36 0 4
27 23 60 43 33 20 60 41 60 45 0 5 12 16 28 24 15 8 44 30 64 48 20 19 53 48
73 66 19 18 35 38 35 44 0 6 3 9 6 5 3 -3 19 9 34 26 16 18 44 50 64 72 20 22
36 44 36 49 0 5 18 47 40 92 35 73 38 86 29 113 -6 18 -24 38 -40 47 -16 8
-29 18 -29 23 0 14 -50 19 -58 6 -4 -6 -45 -29 -92 -51 -47 -21 -89 -44 -95
-50 -5 -6 -41 -27 -80 -45 -38 -18 -72 -36 -75 -39 -12 -13 -133 -62 -160 -65
-3 0 -21 -8 -40 -17 -32 -15 -55 -20 -150 -33 -47 -7 -248 -7 -285 0 -107 19
-154 29 -150 33 3 3 -19 14 -48 24 -71 24 -114 48 -151 81 -17 15 -36 27 -42
27 -6 0 -28 19 -48 41 -20 23 -36 38 -36 34 0 -4 -13 10 -30 31 -16 22 -34 44
-40 51 -5 7 -10 17 -10 23 0 6 -4 9 -9 5 -9 -5 -19 15 -28 55 -7 28 -7 65 1
112 l7 47 56 7 c34 4 83 2 124 -6 38 -7 71 -12 75 -11 4 2 10 -2 13 -8 22 -35
641 -35 671 0 3 3 44 13 92 23 48 9 111 24 140 33 65 20 64 20 84 22 8 0 13 5
10 10 -5 8 16 17 59 26 13 3 135 61 155 74 49 31 96 56 103 53 4 -1 10 4 13
12 3 8 32 31 64 52 33 21 57 41 54 46 -3 4 0 8 6 8 16 0 190 175 190 191 0 7
3 10 6 6 7 -7 42 34 69 80 10 18 22 30 26 27 4 -2 22 21 39 51 18 31 34 54 37
51 5 -5 21 22 65 108 11 22 26 45 33 52 12 12 41 142 50 224 2 19 7 55 10 80
8 60 8 225 0 275 -3 22 -15 87 -26 145 -12 58 -22 111 -23 118 -1 7 -8 18 -14
24 -7 7 -12 18 -12 26 0 31 -73 261 -81 256 -5 -3 -9 1 -9 8 0 22 -48 109 -75
135 -14 14 -25 30 -25 35 0 13 -143 158 -156 158 -6 0 -18 10 -27 23 -8 12
-35 33 -61 46 -25 13 -46 27 -46 32 0 7 -122 69 -138 69 -5 0 -15 6 -21 14
-13 15 -100 49 -176 67 -27 7 -52 16 -55 20 -8 12 -139 37 -275 53 -151 18
-420 18 -500 1z m518 -291 c20 -3 37 -9 37 -14 0 -4 9 -10 21 -13 18 -5 19 -8
8 -29 -26 -50 -61 -66 -164 -74 -80 -6 -160 -15 -180 -19 -22 -4 -106 -21
-144 -29 -14 -3 -27 -10 -30 -15 -4 -5 -20 -13 -36 -17 -46 -11 -116 -45 -155
-75 -19 -15 -38 -26 -42 -25 -7 1 -68 -50 -139 -115 -16 -15 -25 -29 -22 -33
3 -3 1 -6 -5 -6 -6 0 -22 -10 -35 -22 -53 -50 -94 -82 -124 -94 -17 -8 -46
-27 -64 -44 -19 -16 -37 -30 -42 -30 -12 0 -75 -48 -122 -92 -22 -21 -45 -38
-52 -38 -7 0 -12 -4 -10 -8 3 -11 -58 -72 -72 -72 -6 0 -11 -6 -11 -12 0 -7
-17 -31 -38 -54 -49 -54 -102 -121 -102 -130 0 -4 -13 -19 -29 -33 -15 -14
-36 -40 -45 -58 -9 -18 -22 -36 -30 -40 -7 -4 -25 -28 -41 -53 -15 -25 -32
-49 -39 -55 -11 -10 -69 -95 -72 -105 -4 -20 -17 -39 -24 -35 -4 3 -15 -11
-24 -30 -18 -38 -58 -69 -78 -63 -16 6 -11 77 6 98 7 8 30 49 50 92 20 42 40
78 44 80 5 1 15 15 23 29 46 85 61 110 84 135 14 15 25 31 25 36 0 14 36 58
42 52 3 -2 13 10 22 28 19 40 61 88 76 88 5 0 9 4 7 9 -1 5 13 25 31 44 17 20
32 42 32 48 0 7 3 10 6 7 3 -4 21 11 41 33 19 21 39 36 44 33 5 -3 8 -1 7 5
-2 5 16 27 40 49 23 22 42 38 42 34 0 -4 7 3 15 15 8 11 36 35 62 52 25 17 43
31 38 31 -4 0 5 10 21 23 16 12 32 21 36 20 4 -2 19 10 35 25 32 32 175 127
243 161 25 13 48 28 52 35 4 6 11 11 15 12 22 2 133 61 127 67 -4 4 -2 7 5 7
13 0 183 71 191 80 9 10 115 49 185 69 39 11 66 20 60 21 -5 1 13 7 40 14 50
12 86 12 158 0z m123 -939 c45 -8 107 -70 142 -143 28 -58 30 -69 28 -156 -3
-66 -8 -100 -20 -118 -9 -14 -19 -35 -21 -47 -2 -12 -13 -34 -24 -50 -11 -15
-18 -31 -15 -34 3 -3 -5 -11 -17 -18 -13 -7 -29 -17 -35 -23 -44 -42 -78 -64
-147 -93 -43 -18 -85 -33 -93 -33 -9 0 -13 -4 -10 -9 3 -5 -11 -12 -32 -17
-20 -4 -44 -9 -52 -11 -49 -12 -154 -21 -215 -18 -78 4 -209 31 -240 50 -11 6
-49 20 -85 30 -36 10 -69 22 -73 26 -11 9 4 37 42 78 17 18 31 39 31 46 0 7
16 25 35 39 20 15 33 31 30 35 -2 5 15 27 38 49 23 23 53 55 67 71 14 17 33
33 43 37 10 3 16 8 13 11 -3 3 14 20 37 39 23 18 55 45 70 59 15 14 45 34 67
45 21 11 41 24 45 30 6 10 47 30 130 64 21 9 42 20 45 24 3 5 33 17 68 29 62
19 83 21 148 8z"/>
<path d="M24355 11846 c-62 -14 -135 -45 -135 -57 0 -4 -26 -19 -57 -34 -32
-14 -63 -32 -68 -38 -6 -7 -39 -27 -75 -46 -36 -19 -74 -41 -85 -50 -22 -17
-52 -36 -102 -62 -18 -9 -30 -18 -28 -20 2 -3 -27 -22 -65 -43 -38 -22 -67
-43 -64 -47 2 -4 -6 -11 -18 -15 -13 -4 -39 -20 -58 -35 -19 -16 -37 -29 -41
-29 -4 0 -24 -16 -45 -35 -21 -19 -42 -35 -47 -35 -5 0 -24 -16 -41 -35 -18
-19 -35 -33 -37 -30 -3 2 -22 -16 -44 -40 -21 -25 -42 -45 -47 -45 -9 0 -48
-37 -48 -45 0 -3 -9 -15 -20 -27 -11 -12 -20 -18 -20 -13 0 4 -16 -13 -35 -39
-20 -25 -40 -46 -44 -46 -5 0 -20 -17 -34 -38 -13 -21 -39 -51 -56 -68 -17
-16 -31 -34 -31 -39 0 -6 -12 -24 -27 -41 -16 -16 -43 -59 -62 -94 -19 -36
-42 -74 -52 -86 -11 -11 -19 -24 -19 -29 0 -5 -8 -27 -19 -49 -10 -23 -24 -56
-31 -73 -7 -18 -16 -33 -21 -33 -5 0 -9 -7 -9 -15 0 -9 -10 -35 -21 -58 -12
-23 -21 -42 -19 -42 1 0 -3 -19 -10 -42 -7 -24 -16 -43 -21 -43 -4 0 -19 -37
-34 -82 -15 -46 -38 -105 -50 -133 -13 -27 -37 -93 -55 -145 -18 -52 -36 -97
-40 -100 -10 -7 -70 -195 -70 -221 0 -11 -4 -18 -9 -15 -33 21 -50 -399 -22
-514 8 -30 17 -57 20 -60 3 -3 17 -36 30 -75 13 -38 30 -79 38 -91 7 -11 10
-24 6 -29 -5 -4 -3 -6 2 -2 14 7 85 -135 85 -169 0 -8 4 -13 8 -10 4 3 19 -16
32 -42 12 -26 29 -59 37 -74 7 -14 13 -34 14 -45 0 -11 3 -13 6 -5 3 7 20 -19
39 -58 19 -38 38 -70 42 -70 4 0 16 -15 27 -32 18 -31 155 -193 155 -184 0 3
17 -11 38 -29 20 -19 42 -35 49 -35 7 0 17 -8 22 -18 5 -10 39 -33 75 -52 35
-19 62 -39 59 -45 -4 -5 -3 -7 2 -3 4 4 21 0 38 -8 39 -21 137 -53 160 -54 9
0 17 -4 17 -9 0 -5 19 -12 43 -16 23 -4 51 -10 62 -12 11 -3 88 -6 170 -8 146
-3 404 19 415 35 3 4 21 10 40 13 97 15 272 56 280 66 3 3 60 24 127 45 67 22
120 43 117 48 -3 4 -1 8 4 8 5 0 25 6 43 14 19 8 36 14 39 14 9 -1 88 41 92
49 1 5 33 23 71 42 37 19 67 38 67 42 0 5 17 17 38 28 20 10 48 30 62 42 15
13 43 35 63 49 20 14 37 28 37 33 0 4 5 7 12 7 6 0 27 18 45 40 19 22 39 38
44 34 5 -3 9 -1 9 3 0 12 79 100 80 88 0 -11 69 96 70 109 0 5 6 14 14 20 8 6
25 43 39 82 22 63 23 74 12 102 -8 17 -24 36 -36 43 -13 7 -29 18 -36 25 -14
13 -56 7 -47 -7 3 -5 -1 -9 -8 -9 -23 0 -169 -75 -162 -83 4 -4 2 -8 -4 -8
-21 -3 -26 -5 -92 -38 -35 -18 -67 -37 -71 -42 -3 -6 -12 -11 -20 -13 -8 -1
-31 -10 -52 -19 -21 -9 -56 -21 -77 -27 -22 -6 -41 -14 -44 -19 -3 -5 -25 -12
-48 -16 -24 -4 -50 -9 -58 -11 -100 -21 -294 -20 -410 1 -52 9 -80 19 -80 26
0 5 -7 9 -15 9 -26 0 -155 60 -155 73 0 4 -10 11 -23 16 -13 5 -37 21 -55 36
-18 15 -32 23 -32 19 0 -4 -10 6 -22 22 -13 17 -39 46 -59 66 -39 39 -84 121
-82 150 1 10 -2 16 -6 14 -4 -3 -7 6 -7 19 0 13 3 22 7 19 4 -2 11 16 14 41 4
25 10 45 14 46 83 11 231 -2 257 -23 22 -17 182 -27 374 -23 205 5 278 11 295
25 6 5 26 12 45 15 86 14 219 49 265 71 28 12 91 39 140 58 50 20 86 36 80 36
-10 1 64 44 77 45 3 0 19 11 35 25 15 14 40 32 55 40 47 26 214 182 279 260
11 14 32 39 47 55 15 17 41 51 58 77 18 26 34 45 36 43 3 -3 15 14 28 38 13
23 38 62 56 87 39 55 62 128 80 260 3 25 10 48 16 51 12 8 17 69 18 209 0 127
-5 171 -23 182 -9 6 -8 8 2 8 9 0 10 4 3 13 -5 6 -13 26 -16 42 -13 60 -17 81
-21 105 -3 14 -12 52 -21 85 -8 33 -18 71 -21 85 -3 14 -9 27 -13 30 -4 3 -19
43 -33 90 -17 54 -45 113 -77 162 -27 43 -50 83 -50 90 0 6 -3 9 -6 5 -3 -3
-23 13 -43 37 -38 44 -115 116 -123 116 -3 0 -23 16 -44 35 -21 19 -43 35 -50
35 -6 0 -18 7 -25 16 -14 17 -149 84 -169 84 -6 0 -9 4 -6 9 5 8 -170 71 -199
71 -8 0 -15 4 -15 9 0 8 -115 33 -215 47 -27 4 -59 9 -70 11 -11 2 -114 6
-230 8 -151 3 -227 0 -270 -9z m513 -290 c18 -3 40 -13 48 -21 9 -8 19 -13 24
-10 5 3 11 1 14 -4 9 -14 -57 -77 -88 -85 -16 -4 -49 -9 -75 -11 -25 -3 -73
-7 -106 -10 -33 -3 -72 -7 -85 -10 -14 -3 -38 -7 -55 -10 -69 -14 -125 -29
-125 -36 0 -3 -24 -14 -54 -23 -56 -18 -138 -56 -121 -56 6 0 -15 -15 -46 -33
-31 -18 -70 -46 -86 -62 -16 -17 -41 -39 -56 -49 -15 -10 -27 -24 -27 -31 0
-7 -12 -21 -27 -31 -15 -10 -38 -30 -52 -44 -28 -27 -89 -64 -133 -81 -16 -6
-26 -14 -24 -18 3 -4 -20 -23 -50 -41 -31 -18 -63 -44 -71 -57 -8 -12 -19 -21
-23 -18 -4 2 -26 -15 -49 -38 -22 -23 -51 -52 -63 -64 -13 -12 -42 -43 -66
-70 -23 -26 -60 -68 -82 -93 -22 -24 -40 -48 -40 -52 0 -8 -21 -36 -48 -64 -8
-8 -30 -38 -50 -66 -19 -29 -44 -62 -55 -73 -10 -11 -26 -33 -34 -50 -9 -16
-28 -42 -42 -58 -14 -15 -26 -30 -26 -35 0 -4 -10 -21 -23 -39 -12 -17 -22
-35 -22 -40 0 -12 -64 -53 -83 -53 -19 0 -23 15 -7 25 6 3 10 15 10 25 0 29
38 123 58 146 9 10 35 54 56 96 22 42 43 75 48 72 4 -3 8 -1 8 3 0 5 14 31 32
59 18 27 31 53 29 59 -1 5 1 7 4 3 7 -7 65 64 65 79 0 4 19 25 43 46 23 22 41
43 41 46 -1 3 7 17 17 30 11 13 19 20 19 15 0 -4 10 5 23 22 30 40 147 158
147 148 0 -4 18 12 40 37 21 24 43 44 47 44 5 0 21 10 37 23 16 12 25 22 20
22 -4 0 12 13 37 28 24 16 51 35 59 43 22 21 91 66 122 80 15 6 26 15 23 18
-2 4 32 25 75 48 43 23 77 43 74 46 -3 2 29 19 70 37 41 18 73 37 70 42 -3 4
1 8 9 8 8 0 49 16 91 35 43 19 82 35 87 35 6 0 17 6 24 14 7 7 60 28 117 46
57 18 108 36 114 41 13 11 112 27 139 23 11 -1 35 -5 53 -8z m126 -941 c46 -8
120 -76 151 -140 27 -56 27 -206 1 -292 -11 -35 -23 -63 -27 -63 -4 0 -18 -17
-30 -37 -26 -42 -49 -68 -60 -68 -4 0 -20 -11 -35 -24 -30 -26 -140 -78 -183
-87 -8 -1 -17 -7 -20 -12 -11 -17 -142 -44 -229 -47 -69 -3 -160 5 -217 19 -5
2 -27 6 -47 10 -21 5 -36 11 -34 15 3 4 -33 17 -80 30 -46 13 -87 27 -90 33
-9 15 27 72 97 151 23 26 38 47 34 47 -4 0 12 20 36 44 24 25 54 55 66 68 12
13 29 28 37 35 8 7 20 20 28 30 7 10 32 31 56 47 23 16 42 33 42 38 0 5 8 12
18 15 9 4 31 17 48 30 17 13 35 23 41 23 5 0 23 11 39 25 16 14 33 25 37 25 4
0 27 9 49 20 23 11 48 20 55 20 7 0 13 4 13 9 0 4 26 16 58 25 76 23 75 23 92
20 8 -2 33 -6 54 -9z"/>
</g>
</svg>
